<?xml version="1.0" standalone="no"?>
<!DOCTYPE svg PUBLIC "-//W3C//DTD SVG 20010904//EN"
 "http://www.w3.org/TR/2001/REC-SVG-20010904/DTD/svg10.dtd">
<svg version="1.0" xmlns="http://www.w3.org/2000/svg"
 width="2125.000000pt" height="2125.000000pt" viewBox="0 0 2125.000000 2125.000000"
 preserveAspectRatio="xMidYMid meet">
<metadata>
Created by potrace 1.11, written by Peter Selinger 2001-2013
</metadata>
<g transform="translate(0.000000,2125.000000) scale(0.100000,-0.100000)"
fill="#000000" stroke="none">
<path d="M10148 21237 c-12 -4 -59 -8 -103 -8 -129 1 -219 -4 -238 -13 -9 -5
-37 -5 -61 -2 -29 5 -47 3 -51 -5 -5 -7 -24 -9 -56 -5 -31 4 -50 3 -55 -5 -4
-7 -22 -9 -50 -5 -26 3 -46 1 -50 -5 -4 -7 -22 -9 -45 -5 -23 4 -40 2 -45 -5
-4 -6 -19 -9 -37 -5 -17 3 -36 1 -43 -5 -8 -6 -27 -9 -44 -6 -16 4 -32 2 -36
-4 -3 -6 -19 -8 -35 -5 -15 3 -31 1 -35 -5 -4 -6 -20 -8 -40 -4 -23 4 -34 2
-34 -6 0 -7 -10 -9 -30 -6 -16 4 -32 2 -36 -4 -3 -6 -19 -8 -35 -5 -18 3 -29
1 -29 -5 0 -7 -11 -9 -30 -6 -16 4 -32 2 -36 -4 -3 -6 -17 -8 -29 -5 -13 3
-27 1 -30 -5 -4 -6 -18 -8 -31 -5 -15 4 -24 2 -24 -5 0 -7 -10 -9 -25 -7 -14
3 -28 1 -31 -4 -4 -5 -17 -7 -30 -4 -15 4 -24 2 -24 -5 0 -7 -9 -9 -24 -5 -14
3 -28 1 -32 -5 -3 -6 -15 -9 -25 -6 -10 3 -22 1 -25 -5 -3 -5 -15 -8 -25 -5
-10 3 -22 1 -25 -5 -3 -5 -15 -8 -25 -5 -10 3 -22 1 -25 -4 -3 -6 -14 -7 -25
-4 -11 4 -19 2 -19 -5 0 -8 -9 -10 -25 -6 -16 4 -25 2 -25 -5 0 -6 -9 -9 -20
-6 -11 3 -23 1 -26 -4 -3 -6 -14 -7 -25 -4 -11 4 -19 2 -19 -5 0 -7 -8 -10
-20 -7 -11 3 -23 1 -26 -5 -3 -5 -12 -7 -20 -4 -7 3 -16 1 -20 -5 -3 -5 -14
-7 -25 -4 -11 4 -19 2 -19 -5 0 -7 -8 -9 -20 -5 -12 4 -20 2 -20 -5 0 -7 -8
-9 -20 -5 -12 4 -20 2 -20 -5 0 -7 -8 -9 -20 -5 -12 4 -20 2 -20 -5 0 -7 -8
-9 -20 -5 -12 4 -20 2 -20 -5 0 -7 -8 -9 -20 -5 -12 4 -20 2 -20 -5 0 -7 -7
-10 -15 -7 -8 4 -17 2 -21 -4 -3 -6 -12 -8 -20 -5 -7 3 -16 1 -20 -5 -3 -6
-12 -8 -20 -5 -8 3 -14 1 -14 -5 0 -6 -9 -8 -20 -4 -12 4 -20 2 -20 -5 0 -7
-7 -10 -15 -6 -8 3 -15 0 -15 -5 0 -6 -9 -9 -20 -6 -11 3 -20 1 -20 -5 0 -6
-7 -8 -15 -5 -8 4 -17 2 -21 -4 -3 -6 -12 -8 -20 -5 -8 3 -14 1 -14 -5 0 -6
-7 -9 -15 -5 -8 3 -15 1 -15 -5 0 -6 -9 -8 -20 -4 -12 4 -20 2 -20 -5 0 -7 -7
-10 -15 -6 -8 3 -15 1 -15 -5 0 -6 -7 -9 -15 -5 -8 3 -15 1 -15 -5 0 -6 -7 -9
-15 -6 -8 4 -17 2 -21 -4 -3 -6 -12 -8 -20 -5 -8 3 -14 1 -14 -5 0 -6 -7 -9
-15 -5 -8 3 -15 1 -15 -5 0 -6 -7 -9 -15 -5 -8 3 -15 1 -15 -5 0 -6 -7 -9 -15
-5 -8 3 -15 1 -15 -5 0 -6 -7 -9 -15 -5 -8 3 -15 1 -15 -5 0 -6 -7 -9 -15 -5
-8 3 -15 1 -15 -5 0 -6 -7 -9 -15 -5 -8 3 -15 1 -15 -5 0 -6 -7 -9 -15 -5 -8
3 -15 1 -15 -5 0 -6 -7 -9 -15 -5 -8 3 -15 1 -15 -5 0 -6 -7 -9 -15 -5 -8 3
-15 1 -15 -5 0 -6 -7 -9 -15 -5 -8 3 -15 1 -15 -5 0 -6 -7 -9 -15 -5 -8 3 -15
1 -15 -5 0 -6 -7 -9 -15 -5 -8 3 -15 1 -15 -5 0 -6 -7 -9 -15 -5 -8 3 -15 1
-15 -5 0 -6 -4 -8 -9 -4 -5 3 -12 1 -16 -5 -4 -6 -11 -8 -16 -5 -5 4 -9 1 -9
-5 0 -7 -7 -10 -15 -6 -8 3 -15 1 -15 -5 0 -6 -7 -9 -15 -5 -8 3 -15 1 -15 -5
0 -6 -4 -7 -10 -4 -5 3 -10 1 -10 -5 0 -7 -7 -10 -15 -6 -8 3 -15 1 -15 -5 0
-6 -7 -9 -15 -5 -8 3 -15 1 -15 -5 0 -6 -4 -8 -9 -4 -5 3 -12 1 -16 -5 -4 -6
-11 -8 -16 -5 -5 4 -9 1 -9 -5 0 -7 -7 -10 -15 -6 -8 3 -15 1 -15 -5 0 -6 -4
-7 -10 -4 -5 3 -10 1 -10 -5 0 -7 -7 -10 -15 -6 -8 3 -15 1 -15 -5 0 -6 -4 -7
-10 -4 -5 3 -10 1 -10 -5 0 -7 -7 -10 -15 -6 -8 3 -15 1 -15 -5 0 -6 -4 -7
-10 -4 -5 3 -10 1 -10 -5 0 -7 -7 -10 -15 -6 -8 3 -15 1 -15 -5 0 -6 -4 -7
-10 -4 -5 3 -10 1 -10 -5 0 -7 -7 -10 -15 -6 -8 3 -15 1 -15 -5 0 -6 -4 -7
-10 -4 -5 3 -10 1 -10 -5 0 -7 -7 -10 -15 -6 -8 3 -15 1 -15 -5 0 -6 -4 -7
-10 -4 -5 3 -10 1 -10 -5 0 -6 -4 -8 -10 -5 -5 3 -10 1 -10 -5 0 -7 -7 -10
-15 -6 -8 3 -15 1 -15 -5 0 -6 -4 -7 -10 -4 -5 3 -10 1 -10 -5 0 -6 -4 -8 -10
-5 -5 3 -10 1 -10 -5 0 -7 -7 -10 -15 -6 -8 3 -15 1 -15 -5 0 -6 -4 -7 -10 -4
-5 3 -10 1 -10 -5 0 -6 -4 -8 -10 -5 -5 3 -10 1 -10 -5 0 -7 -7 -10 -15 -6 -8
3 -15 1 -15 -5 0 -6 -4 -7 -10 -4 -5 3 -10 1 -10 -5 0 -6 -4 -8 -10 -5 -5 3
-10 1 -10 -5 0 -6 -4 -8 -10 -5 -5 3 -10 1 -10 -5 0 -7 -7 -10 -15 -6 -8 3
-15 1 -15 -5 0 -6 -4 -7 -10 -4 -5 3 -10 1 -10 -5 0 -6 -4 -8 -10 -5 -5 3 -10
1 -10 -5 0 -6 -4 -8 -10 -5 -5 3 -10 1 -10 -6 0 -7 -3 -10 -6 -6 -4 3 -13 -1
-21 -9 -9 -8 -22 -13 -30 -10 -9 4 -11 2 -7 -6 5 -8 2 -9 -9 -5 -10 3 -17 2
-17 -4 0 -6 -4 -7 -10 -4 -5 3 -10 1 -10 -5 0 -6 -4 -8 -10 -5 -5 3 -10 1 -10
-5 0 -6 -4 -8 -10 -5 -5 3 -10 1 -10 -5 0 -6 -4 -8 -10 -5 -5 3 -10 1 -10 -5
0 -6 -4 -8 -10 -5 -5 3 -10 1 -10 -5 0 -6 -4 -8 -10 -5 -5 3 -10 1 -10 -5 0
-6 -4 -8 -10 -5 -5 3 -10 1 -10 -5 0 -6 -4 -8 -10 -5 -5 3 -10 1 -10 -5 0 -6
-4 -8 -10 -5 -5 3 -10 1 -10 -5 0 -6 -4 -8 -10 -5 -5 3 -10 1 -10 -5 0 -6 -4
-8 -10 -5 -5 3 -10 1 -10 -5 0 -6 -4 -8 -10 -5 -5 3 -10 1 -10 -5 0 -6 -4 -8
-10 -5 -5 3 -10 1 -10 -5 0 -6 -4 -8 -10 -5 -5 3 -10 1 -10 -5 0 -6 -4 -8 -10
-5 -5 3 -10 1 -10 -5 0 -6 -4 -8 -10 -5 -5 3 -10 1 -10 -5 0 -6 -4 -8 -10 -5
-5 3 -10 1 -10 -5 0 -6 -4 -8 -10 -5 -5 3 -10 1 -10 -5 0 -6 -4 -8 -10 -5 -5
3 -10 1 -10 -5 0 -6 -4 -8 -10 -5 -5 3 -10 1 -10 -5 0 -6 -4 -8 -10 -5 -5 3
-10 1 -10 -6 0 -7 -3 -10 -6 -7 -3 4 -14 -2 -25 -13 -11 -11 -24 -17 -29 -14
-6 4 -10 1 -10 -5 0 -6 -4 -8 -10 -5 -5 3 -10 1 -10 -5 0 -6 -4 -8 -10 -5 -5
3 -10 1 -10 -6 0 -7 -3 -10 -6 -7 -3 4 -14 -2 -25 -13 -11 -11 -24 -17 -29
-14 -6 4 -10 1 -10 -5 0 -6 -4 -8 -10 -5 -5 3 -10 1 -10 -5 0 -6 -4 -8 -10 -5
-5 3 -10 1 -10 -5 0 -6 -4 -9 -9 -6 -5 3 -12 -1 -15 -10 -3 -8 -10 -12 -16 -9
-5 3 -10 1 -10 -5 0 -6 -4 -8 -10 -5 -5 3 -10 1 -10 -5 0 -6 -4 -9 -9 -6 -5 3
-12 -1 -15 -10 -3 -8 -10 -12 -16 -9 -5 3 -10 1 -10 -5 0 -6 -4 -8 -10 -5 -5
3 -10 1 -10 -5 0 -6 -4 -9 -9 -6 -5 3 -12 -1 -15 -10 -3 -8 -10 -12 -16 -9 -5
3 -10 1 -10 -6 0 -7 -3 -9 -7 -6 -3 4 -12 -1 -20 -11 -10 -11 -12 -12 -8 -2 4
8 -1 6 -9 -4 -9 -11 -16 -16 -16 -11 0 5 -7 0 -16 -11 -8 -10 -13 -12 -9 -4 4
8 -1 6 -9 -4 -9 -11 -16 -16 -16 -11 0 5 -7 0 -16 -11 -8 -10 -13 -12 -9 -4 4
8 -1 6 -9 -4 -9 -11 -16 -16 -16 -10 0 5 -5 1 -11 -9 -6 -9 -14 -15 -20 -12
-5 4 -9 1 -9 -5 0 -6 -4 -9 -9 -6 -5 3 -12 -1 -15 -10 -4 -9 -9 -14 -13 -11
-3 4 -12 -1 -20 -11 -10 -11 -12 -12 -8 -2 4 8 -1 6 -9 -4 -9 -11 -16 -16 -16
-11 0 5 -7 0 -15 -11 -8 -10 -15 -15 -15 -10 0 6 -7 1 -15 -10 -8 -10 -15 -15
-15 -10 0 6 -7 1 -16 -10 -8 -10 -13 -12 -9 -4 4 8 -3 4 -15 -10 -12 -14 -19
-18 -15 -10 4 8 -1 6 -9 -4 -9 -11 -16 -16 -16 -10 0 5 -5 1 -11 -9 -6 -9 -14
-15 -19 -12 -4 3 -11 -2 -14 -11 -3 -8 -10 -13 -15 -10 -5 3 -12 -1 -15 -10
-3 -8 -10 -13 -15 -10 -5 3 -12 -1 -15 -10 -3 -8 -10 -13 -15 -10 -5 3 -12 -1
-15 -10 -3 -8 -10 -13 -15 -10 -5 3 -12 -1 -15 -10 -4 -9 -9 -14 -12 -11 -4 3
-15 -4 -26 -16 -11 -12 -17 -15 -13 -7 4 8 -3 4 -15 -10 -12 -14 -19 -18 -15
-10 4 8 -3 4 -14 -10 -11 -14 -21 -20 -21 -15 0 6 -5 3 -10 -5 -5 -8 -14 -15
-19 -15 -6 0 -17 -9 -26 -20 -9 -11 -14 -13 -10 -5 4 8 -1 6 -10 -5 -9 -11
-20 -20 -25 -20 -5 0 -16 -9 -25 -20 -9 -11 -13 -13 -10 -5 4 8 -5 2 -20 -15
-14 -16 -24 -23 -20 -15 4 8 -1 6 -10 -5 -9 -11 -20 -20 -25 -20 -5 0 -16 -9
-25 -20 -9 -11 -13 -13 -10 -5 4 8 -5 2 -20 -15 -14 -16 -23 -23 -20 -15 4 8
-5 2 -20 -15 -14 -16 -23 -23 -20 -15 4 8 -5 2 -20 -15 -14 -16 -23 -23 -20
-15 4 8 -8 -1 -25 -20 -17 -19 -29 -28 -25 -20 4 8 -5 2 -20 -15 -14 -16 -23
-23 -19 -15 3 8 -8 -1 -25 -20 -18 -19 -29 -28 -25 -20 3 8 -8 -1 -25 -20 -18
-19 -29 -28 -25 -20 3 8 -8 -1 -26 -20 -18 -19 -27 -26 -20 -15 7 11 -4 2 -24
-20 -21 -22 -34 -33 -31 -25 4 8 -10 -3 -30 -25 -21 -22 -32 -31 -25 -20 7 11
-7 0 -30 -25 -23 -25 -37 -36 -30 -25 7 11 -9 -2 -35 -30 -26 -27 -42 -41 -35
-30 7 11 -9 -2 -35 -30 -26 -27 -42 -41 -35 -30 7 11 -12 -5 -41 -36 -30 -30
-49 -48 -44 -39 6 9 -9 -4 -33 -29 -24 -25 -47 -45 -52 -44 -4 1 -38 -31 -75
-72 -36 -41 -70 -74 -73 -72 -10 3 -438 -425 -435 -434 1 -4 -29 -35 -67 -69
-38 -34 -68 -65 -67 -70 1 -5 -19 -28 -44 -52 -25 -24 -38 -38 -29 -33 9 6 -9
-14 -39 -44 -31 -29 -47 -48 -36 -41 11 7 -2 -9 -30 -35 -27 -26 -41 -42 -30
-35 11 7 -2 -9 -30 -35 -27 -26 -41 -42 -30 -35 11 7 0 -7 -25 -30 -25 -23
-36 -37 -25 -30 11 7 2 -4 -20 -25 -22 -20 -33 -34 -25 -30 8 3 -3 -10 -25
-31 -22 -20 -31 -31 -20 -24 11 7 2 -5 -20 -25 -22 -21 -31 -32 -20 -25 11 7
4 -2 -15 -20 -19 -18 -28 -29 -20 -26 8 4 -1 -7 -20 -25 -19 -17 -28 -28 -20
-25 8 4 2 -5 -15 -19 -16 -15 -23 -24 -15 -20 8 4 -1 -8 -20 -25 -19 -17 -28
-29 -20 -25 8 3 2 -6 -15 -20 -16 -15 -23 -24 -15 -20 8 3 2 -6 -15 -20 -16
-15 -23 -24 -15 -20 8 3 2 -6 -15 -20 -16 -15 -23 -24 -15 -20 8 3 6 -1 -5
-10 -11 -9 -20 -20 -20 -25 0 -5 -9 -16 -20 -25 -11 -9 -13 -14 -5 -10 8 4 2
-6 -15 -20 -16 -15 -23 -24 -15 -20 8 3 6 -1 -5 -10 -11 -9 -20 -20 -20 -25 0
-5 -9 -16 -20 -25 -11 -9 -13 -14 -5 -10 8 4 6 -1 -5 -10 -11 -9 -20 -20 -20
-26 0 -5 -7 -14 -15 -19 -8 -5 -10 -10 -5 -10 6 0 -1 -10 -15 -21 -14 -11 -18
-18 -10 -14 8 4 4 -3 -10 -15 -14 -12 -18 -19 -10 -15 8 4 5 -2 -7 -13 -12
-11 -19 -22 -16 -26 3 -3 -2 -8 -11 -12 -9 -3 -13 -10 -10 -15 3 -5 -2 -12
-10 -15 -9 -3 -13 -10 -10 -15 3 -5 -2 -12 -10 -15 -9 -3 -13 -10 -10 -15 3
-5 -2 -12 -10 -15 -9 -3 -13 -10 -10 -15 3 -5 -2 -12 -10 -15 -9 -3 -14 -10
-11 -14 3 -5 -3 -13 -12 -19 -10 -6 -14 -11 -9 -11 6 0 1 -7 -10 -16 -10 -8
-12 -13 -4 -9 8 4 4 -3 -10 -15 -14 -12 -18 -19 -10 -15 8 4 6 -1 -4 -9 -11
-9 -16 -16 -10 -16 5 0 0 -7 -10 -15 -11 -8 -16 -15 -10 -15 5 0 0 -7 -10 -15
-11 -8 -16 -15 -11 -15 5 0 0 -7 -11 -16 -10 -8 -12 -13 -4 -9 10 4 9 2 -2 -8
-10 -8 -15 -17 -11 -20 3 -4 -2 -9 -11 -13 -9 -3 -13 -10 -10 -15 3 -5 0 -9
-6 -9 -6 0 -9 -4 -5 -9 3 -6 -3 -14 -12 -20 -10 -6 -14 -11 -9 -11 6 0 1 -7
-10 -16 -10 -8 -12 -13 -4 -9 8 4 6 -1 -4 -9 -11 -9 -16 -16 -11 -16 5 0 0 -7
-11 -16 -10 -8 -12 -13 -4 -9 8 4 6 -1 -4 -9 -11 -9 -16 -16 -11 -16 5 0 0 -7
-11 -16 -10 -8 -12 -13 -4 -9 10 4 9 2 -2 -8 -10 -8 -15 -17 -11 -20 3 -4 1
-7 -6 -7 -7 0 -9 -5 -6 -10 3 -6 -1 -13 -9 -16 -9 -3 -13 -10 -10 -15 3 -5 0
-9 -6 -9 -6 0 -8 -4 -5 -10 3 -5 1 -10 -5 -10 -6 0 -8 -5 -5 -10 3 -6 -1 -13
-9 -16 -9 -3 -13 -10 -10 -15 3 -5 0 -9 -6 -9 -6 0 -8 -4 -5 -10 3 -5 1 -10
-5 -10 -6 0 -8 -5 -5 -10 3 -6 -1 -13 -9 -16 -9 -3 -13 -10 -10 -15 3 -5 0 -9
-6 -9 -6 0 -8 -4 -5 -10 3 -5 1 -10 -5 -10 -6 0 -8 -4 -5 -10 3 -5 1 -10 -5
-10 -6 0 -9 -4 -5 -10 3 -5 -3 -18 -14 -29 -11 -11 -17 -22 -14 -25 4 -3 1 -6
-6 -6 -7 0 -9 -4 -6 -10 3 -5 1 -10 -5 -10 -6 0 -8 -4 -5 -10 3 -5 1 -10 -5
-10 -6 0 -9 -4 -5 -10 3 -5 -3 -18 -14 -29 -11 -11 -17 -22 -14 -25 4 -3 1 -6
-6 -6 -7 0 -9 -4 -6 -10 3 -5 1 -10 -5 -10 -6 0 -8 -4 -5 -10 3 -5 1 -10 -5
-10 -6 0 -8 -4 -5 -10 3 -5 1 -10 -5 -10 -6 0 -8 -4 -5 -10 3 -5 1 -10 -5 -10
-6 0 -8 -4 -5 -10 3 -5 1 -10 -5 -10 -6 0 -8 -4 -5 -10 3 -5 1 -10 -5 -10 -6
0 -8 -4 -5 -10 3 -5 1 -10 -5 -10 -6 0 -8 -4 -5 -10 3 -5 1 -10 -5 -10 -6 0
-8 -4 -5 -10 3 -5 1 -10 -5 -10 -6 0 -8 -4 -5 -10 3 -5 1 -10 -5 -10 -6 0 -8
-4 -5 -10 3 -5 1 -10 -5 -10 -6 0 -8 -4 -5 -10 3 -5 1 -10 -5 -10 -6 0 -8 -4
-5 -10 3 -5 1 -10 -5 -10 -6 0 -8 -4 -5 -10 3 -5 1 -10 -5 -10 -6 0 -8 -4 -5
-10 3 -5 1 -10 -5 -10 -6 0 -8 -4 -5 -10 3 -5 1 -10 -5 -10 -6 0 -8 -4 -5 -10
3 -5 1 -10 -5 -10 -6 0 -8 -4 -5 -10 3 -5 1 -10 -5 -10 -6 0 -8 -4 -5 -10 3
-5 1 -10 -5 -10 -6 0 -8 -4 -5 -10 3 -5 1 -10 -5 -10 -6 0 -8 -4 -5 -10 3 -5
2 -10 -4 -10 -6 0 -7 -7 -4 -17 4 -11 3 -14 -5 -9 -8 4 -10 2 -6 -7 3 -8 -2
-21 -10 -30 -8 -8 -12 -17 -9 -21 4 -3 1 -6 -6 -6 -7 0 -9 -4 -6 -10 3 -5 1
-10 -5 -10 -6 0 -8 -4 -5 -10 3 -5 1 -10 -5 -10 -6 0 -8 -4 -5 -10 3 -5 2 -10
-4 -10 -6 0 -8 -7 -5 -15 4 -8 1 -15 -6 -15 -6 0 -8 -4 -5 -10 3 -5 1 -10 -5
-10 -6 0 -8 -4 -5 -10 3 -5 1 -10 -5 -10 -6 0 -8 -4 -5 -10 3 -5 2 -10 -4 -10
-6 0 -8 -7 -5 -15 4 -8 1 -15 -6 -15 -6 0 -8 -4 -5 -10 3 -5 1 -10 -5 -10 -6
0 -8 -4 -5 -10 3 -5 2 -10 -4 -10 -6 0 -8 -7 -5 -15 4 -8 1 -15 -6 -15 -6 0
-8 -4 -5 -10 3 -5 1 -10 -5 -10 -6 0 -8 -4 -5 -10 3 -5 2 -10 -4 -10 -6 0 -8
-7 -5 -15 4 -8 1 -15 -6 -15 -6 0 -8 -4 -5 -10 3 -5 1 -10 -5 -10 -6 0 -8 -4
-5 -10 3 -5 2 -10 -4 -10 -6 0 -8 -7 -5 -15 4 -8 1 -15 -6 -15 -6 0 -8 -4 -5
-10 3 -5 2 -10 -4 -10 -6 0 -8 -7 -5 -15 4 -8 1 -15 -6 -15 -6 0 -8 -4 -5 -10
3 -5 2 -10 -4 -10 -6 0 -8 -7 -5 -15 4 -8 1 -15 -6 -15 -6 0 -8 -4 -5 -10 3
-5 2 -10 -4 -10 -6 0 -8 -7 -5 -15 4 -8 1 -15 -6 -15 -6 0 -8 -4 -5 -10 3 -5
2 -10 -4 -10 -6 0 -8 -7 -5 -15 4 -8 1 -15 -6 -15 -6 0 -8 -4 -5 -10 3 -5 2
-10 -4 -10 -6 0 -8 -7 -5 -15 4 -8 1 -15 -6 -15 -6 0 -9 -4 -5 -9 3 -5 1 -12
-5 -16 -6 -4 -8 -11 -5 -16 4 -5 2 -9 -4 -9 -6 0 -8 -7 -5 -15 4 -8 1 -15 -6
-15 -6 0 -9 -4 -5 -9 3 -5 1 -12 -5 -16 -6 -4 -8 -11 -5 -16 4 -5 2 -9 -4 -9
-6 0 -8 -7 -5 -15 4 -8 1 -15 -5 -15 -6 0 -8 -7 -5 -15 4 -8 1 -15 -6 -15 -6
0 -9 -4 -5 -9 3 -5 1 -12 -5 -16 -6 -4 -8 -11 -5 -16 4 -5 2 -9 -4 -9 -6 0 -8
-7 -5 -15 4 -8 1 -15 -5 -15 -6 0 -8 -7 -5 -15 4 -8 1 -15 -5 -15 -6 0 -8 -7
-5 -15 4 -8 1 -15 -5 -15 -6 0 -8 -7 -5 -15 4 -8 1 -15 -5 -15 -6 0 -8 -7 -5
-15 4 -8 1 -15 -5 -15 -6 0 -8 -7 -5 -15 4 -8 1 -15 -5 -15 -6 0 -8 -7 -5 -15
4 -8 1 -15 -5 -15 -6 0 -8 -7 -5 -15 4 -8 1 -15 -5 -15 -6 0 -8 -7 -5 -15 4
-8 1 -15 -5 -15 -6 0 -8 -7 -5 -15 4 -8 1 -15 -5 -15 -6 0 -8 -7 -5 -15 4 -8
1 -15 -5 -15 -6 0 -8 -7 -5 -15 4 -8 1 -15 -5 -15 -6 0 -8 -7 -5 -15 4 -8 1
-15 -5 -15 -6 0 -8 -6 -5 -14 3 -8 1 -17 -5 -20 -6 -4 -8 -13 -4 -21 3 -8 0
-15 -6 -15 -6 0 -8 -7 -5 -15 4 -8 1 -15 -5 -15 -6 0 -8 -7 -5 -15 4 -8 1 -15
-6 -15 -7 0 -9 -8 -5 -20 4 -11 2 -20 -4 -20 -6 0 -8 -7 -5 -15 4 -8 1 -15 -5
-15 -6 0 -8 -6 -5 -14 3 -8 1 -17 -5 -20 -6 -4 -8 -13 -4 -21 3 -8 1 -15 -5
-15 -6 0 -8 -9 -5 -20 3 -11 0 -20 -6 -20 -5 0 -8 -7 -5 -15 4 -8 1 -15 -6
-15 -7 0 -9 -8 -5 -20 4 -11 2 -20 -4 -20 -6 0 -8 -6 -5 -14 3 -8 1 -17 -5
-20 -6 -4 -8 -13 -5 -20 3 -8 1 -17 -5 -20 -6 -4 -8 -13 -4 -21 3 -8 0 -15 -7
-15 -7 0 -9 -8 -5 -20 4 -12 2 -20 -5 -20 -7 0 -9 -8 -5 -20 4 -12 2 -20 -5
-20 -7 0 -9 -8 -5 -20 4 -12 2 -20 -5 -20 -7 0 -9 -8 -5 -20 4 -12 2 -20 -5
-20 -7 0 -9 -8 -5 -20 4 -12 2 -20 -5 -20 -7 0 -9 -8 -5 -19 3 -11 1 -22 -4
-25 -6 -4 -8 -13 -5 -20 3 -8 1 -17 -4 -20 -6 -3 -8 -15 -5 -26 3 -12 0 -20
-7 -20 -7 0 -9 -8 -5 -19 3 -11 2 -22 -4 -25 -5 -3 -7 -15 -4 -26 3 -11 0 -20
-6 -20 -7 0 -9 -9 -5 -25 4 -16 2 -25 -6 -25 -7 0 -9 -8 -5 -19 3 -11 2 -22
-4 -25 -5 -3 -7 -15 -4 -25 3 -10 0 -22 -5 -25 -6 -3 -8 -15 -5 -25 3 -10 0
-22 -5 -25 -6 -3 -8 -15 -5 -25 3 -10 0 -22 -6 -25 -6 -4 -8 -18 -5 -32 4 -15
2 -24 -5 -24 -7 0 -9 -9 -5 -24 3 -13 1 -26 -4 -30 -5 -3 -7 -17 -4 -31 2 -15
0 -25 -7 -25 -7 0 -9 -9 -5 -24 3 -13 1 -27 -5 -31 -6 -3 -8 -17 -5 -30 3 -12
1 -26 -5 -29 -6 -4 -8 -20 -4 -36 3 -19 1 -30 -5 -30 -7 0 -9 -11 -6 -29 3
-16 1 -32 -5 -35 -6 -4 -8 -20 -4 -36 3 -20 1 -30 -6 -30 -8 0 -10 -11 -6 -34
4 -20 2 -36 -4 -40 -6 -4 -8 -20 -5 -35 3 -16 1 -32 -5 -35 -6 -4 -8 -20 -4
-36 3 -17 0 -36 -6 -44 -6 -7 -8 -26 -5 -43 4 -18 1 -33 -5 -37 -7 -5 -9 -22
-5 -45 4 -23 2 -41 -5 -45 -6 -4 -8 -24 -5 -50 4 -28 2 -46 -5 -50 -8 -5 -9
-24 -5 -55 4 -32 2 -51 -5 -56 -8 -4 -10 -22 -5 -51 3 -24 3 -52 -2 -61 -4
-10 -9 -47 -11 -83 -1 -36 -4 -110 -7 -165 -6 -130 -6 -1010 0 -1140 3 -55 6
-129 7 -165 2 -36 7 -73 11 -83 5 -9 5 -37 2 -61 -5 -29 -3 -47 5 -51 7 -5 9
-24 5 -56 -4 -31 -3 -50 5 -55 7 -4 9 -22 5 -50 -3 -26 -1 -46 5 -50 7 -4 9
-22 5 -45 -4 -23 -2 -40 5 -45 6 -4 9 -19 5 -37 -3 -17 -1 -36 5 -43 6 -8 9
-27 6 -44 -4 -16 -2 -32 4 -36 6 -3 8 -19 5 -35 -3 -15 -1 -31 5 -35 6 -4 8
-20 4 -40 -4 -23 -2 -34 6 -34 7 0 9 -10 6 -30 -4 -16 -2 -32 4 -36 6 -3 8
-19 5 -35 -3 -18 -1 -29 6 -29 6 0 8 -11 5 -30 -4 -16 -2 -32 4 -36 6 -3 8
-17 5 -29 -3 -13 -1 -27 5 -30 6 -4 8 -18 5 -31 -4 -15 -2 -24 5 -24 7 0 9
-10 7 -25 -3 -14 -1 -28 4 -31 5 -4 7 -17 4 -30 -4 -15 -2 -24 5 -24 7 0 9 -9
5 -24 -3 -14 -1 -28 5 -32 6 -3 9 -15 6 -25 -3 -10 -1 -22 5 -25 5 -3 8 -15 5
-25 -3 -10 -1 -22 5 -25 5 -3 8 -15 5 -25 -3 -10 -1 -22 4 -25 6 -3 7 -14 4
-25 -4 -11 -2 -19 5 -19 8 0 10 -9 6 -25 -4 -16 -2 -25 5 -25 6 0 9 -9 6 -20
-3 -11 -1 -23 4 -26 6 -3 7 -14 4 -25 -4 -11 -2 -19 5 -19 7 0 10 -8 7 -20 -3
-11 -1 -20 5 -20 6 0 8 -9 5 -20 -3 -11 -1 -23 4 -26 6 -3 7 -14 4 -25 -4 -11
-2 -19 5 -19 7 0 9 -8 5 -20 -4 -12 -2 -20 5 -20 7 0 9 -8 5 -20 -4 -12 -2
-20 5 -20 7 0 9 -8 5 -20 -4 -12 -2 -20 5 -20 7 0 9 -8 5 -20 -4 -12 -2 -20 5
-20 7 0 9 -8 5 -20 -4 -12 -2 -20 5 -20 7 0 9 -8 5 -20 -4 -12 -2 -20 5 -20 7
0 10 -7 7 -15 -4 -8 -2 -17 4 -21 6 -3 8 -12 5 -20 -3 -8 -1 -14 5 -14 6 0 8
-9 4 -20 -4 -12 -2 -20 5 -20 7 0 10 -7 6 -15 -3 -8 0 -15 5 -15 6 0 9 -9 6
-20 -3 -11 -1 -20 5 -20 6 0 8 -7 5 -15 -4 -8 -2 -17 4 -21 6 -3 8 -12 5 -20
-3 -8 -1 -14 5 -14 6 0 9 -7 5 -15 -3 -8 -1 -15 5 -15 6 0 8 -9 4 -20 -4 -12
-2 -20 5 -20 7 0 10 -7 6 -15 -3 -8 -1 -15 5 -15 6 0 9 -7 5 -15 -3 -8 -1 -15
5 -15 6 0 9 -7 6 -15 -4 -8 -2 -17 4 -21 6 -3 8 -12 5 -20 -3 -8 -1 -14 5 -14
6 0 9 -7 5 -15 -3 -8 -1 -15 5 -15 6 0 9 -7 5 -15 -3 -8 -1 -15 5 -15 6 0 9
-7 5 -15 -3 -8 -1 -15 5 -15 6 0 9 -7 5 -15 -3 -8 -1 -15 5 -15 6 0 9 -7 5
-15 -3 -8 -1 -15 5 -15 6 0 9 -7 5 -15 -3 -8 -1 -15 5 -15 6 0 9 -7 5 -15 -3
-8 -1 -15 5 -15 6 0 9 -7 5 -15 -3 -8 -1 -15 5 -15 6 0 9 -7 5 -15 -3 -8 -1
-15 5 -15 6 0 9 -7 5 -15 -3 -8 -1 -15 5 -15 6 0 9 -7 5 -15 -3 -8 -1 -15 5
-15 6 0 9 -7 5 -15 -3 -8 -1 -15 5 -15 6 0 9 -7 5 -15 -3 -8 -1 -15 5 -15 6 0
8 -4 4 -9 -3 -5 -1 -12 5 -16 6 -4 8 -11 5 -16 -4 -5 -1 -9 5 -9 7 0 10 -7 6
-15 -3 -8 -1 -15 5 -15 6 0 9 -7 5 -15 -3 -8 -1 -15 5 -15 6 0 7 -4 4 -10 -3
-5 -1 -10 5 -10 7 0 10 -7 6 -15 -3 -8 -1 -15 5 -15 6 0 9 -7 5 -15 -3 -8 -1
-15 5 -15 6 0 8 -4 4 -9 -3 -5 -1 -12 5 -16 6 -4 8 -11 5 -16 -4 -5 -1 -9 5
-9 7 0 10 -7 6 -15 -3 -8 -1 -15 5 -15 6 0 7 -4 4 -10 -3 -5 -1 -10 5 -10 7 0
10 -7 6 -15 -3 -8 -1 -15 5 -15 6 0 7 -4 4 -10 -3 -5 -1 -10 5 -10 7 0 10 -7
6 -15 -3 -8 -1 -15 5 -15 6 0 7 -4 4 -10 -3 -5 -1 -10 5 -10 7 0 10 -7 6 -15
-3 -8 -1 -15 5 -15 6 0 7 -4 4 -10 -3 -5 -1 -10 5 -10 7 0 10 -7 6 -15 -3 -8
-1 -15 5 -15 6 0 7 -5 4 -10 -3 -6 -1 -10 5 -10 7 0 10 -7 6 -15 -3 -8 -1 -15
5 -15 6 0 7 -4 4 -10 -3 -6 -1 -10 5 -10 6 0 8 -5 5 -10 -3 -6 -1 -10 5 -10 7
0 10 -7 6 -15 -3 -8 -1 -15 5 -15 6 0 7 -4 4 -10 -3 -6 -1 -10 5 -10 6 0 8 -4
5 -10 -3 -5 -1 -10 5 -10 7 0 10 -7 6 -15 -3 -8 -1 -15 5 -15 6 0 7 -4 4 -10
-3 -6 -1 -10 5 -10 6 0 8 -5 5 -10 -3 -5 -1 -10 5 -10 7 0 10 -7 6 -15 -3 -8
-1 -15 5 -15 6 0 7 -4 4 -10 -3 -6 -1 -10 5 -10 6 0 8 -4 5 -10 -3 -5 -1 -10
5 -10 6 0 8 -5 5 -10 -3 -6 -1 -10 5 -10 7 0 9 -7 6 -16 -4 -10 -2 -13 6 -8 8
5 9 2 5 -9 -3 -10 -2 -17 4 -17 6 0 7 -5 4 -10 -3 -6 -1 -10 5 -10 6 0 8 -4 5
-10 -3 -5 -1 -10 6 -10 7 0 10 -3 6 -6 -3 -4 1 -13 9 -21 8 -9 13 -22 10 -30
-4 -9 -2 -11 6 -7 8 5 9 2 5 -9 -3 -10 -2 -17 4 -17 6 0 7 -4 4 -10 -3 -5 -1
-10 5 -10 6 0 8 -5 5 -10 -3 -6 -1 -10 5 -10 6 0 8 -4 5 -10 -3 -5 -1 -10 5
-10 6 0 8 -4 5 -10 -3 -6 -1 -10 5 -10 6 0 8 -4 5 -10 -3 -5 -1 -10 5 -10 6 0
8 -5 5 -10 -3 -6 -1 -10 5 -10 6 0 8 -4 5 -10 -3 -5 -1 -10 5 -10 6 0 8 -4 5
-10 -3 -5 -1 -10 5 -10 6 0 8 -4 5 -10 -3 -5 -1 -10 5 -10 6 0 8 -4 5 -10 -3
-5 -1 -10 5 -10 6 0 8 -4 5 -10 -3 -5 -1 -10 5 -10 6 0 8 -4 5 -10 -3 -6 -1
-10 5 -10 6 0 8 -4 5 -10 -3 -5 -1 -10 5 -10 6 0 8 -5 5 -10 -3 -6 -1 -10 5
-10 6 0 8 -4 5 -10 -3 -5 -1 -10 5 -10 6 0 8 -4 5 -10 -3 -5 -1 -10 5 -10 6 0
8 -4 5 -10 -3 -5 -1 -10 5 -10 6 0 8 -4 5 -10 -3 -5 -1 -10 5 -10 6 0 8 -4 5
-10 -3 -5 -1 -10 5 -10 6 0 8 -4 5 -10 -3 -5 -1 -10 5 -10 6 0 8 -5 5 -10 -3
-6 -1 -10 6 -10 7 0 10 -3 6 -6 -3 -3 3 -14 14 -25 11 -11 17 -24 14 -29 -4
-6 -1 -10 5 -10 6 0 8 -4 5 -10 -3 -5 -1 -10 5 -10 6 0 8 -5 5 -10 -3 -6 -1
-10 5 -10 6 0 8 -4 5 -10 -3 -5 -2 -10 4 -10 6 0 15 -10 22 -21 9 -17 8 -20
-3 -14 -7 3 -5 0 4 -8 10 -8 15 -17 11 -20 -3 -4 -1 -7 6 -7 7 0 9 -4 6 -10
-3 -5 -1 -10 5 -10 6 0 9 -4 6 -9 -3 -5 1 -12 10 -15 8 -3 12 -10 9 -16 -3 -5
-1 -10 5 -10 6 0 8 -4 5 -10 -3 -5 -1 -10 5 -10 6 0 9 -4 6 -9 -3 -5 1 -12 10
-15 8 -3 12 -10 9 -16 -3 -5 -1 -10 5 -10 6 0 8 -4 5 -10 -3 -5 -1 -10 5 -10
6 0 9 -4 6 -9 -3 -5 1 -12 10 -15 8 -3 12 -10 9 -16 -3 -5 -1 -10 5 -10 6 0 9
-4 6 -9 -3 -5 1 -12 10 -15 8 -3 12 -10 9 -16 -3 -5 -1 -10 6 -10 7 0 9 -3 6
-7 -4 -3 1 -12 11 -20 11 -10 12 -12 2 -8 -8 4 -6 -1 4 -9 11 -9 16 -16 11
-16 -5 0 0 -7 11 -16 10 -8 12 -13 4 -9 -8 4 -6 -1 4 -9 11 -9 16 -16 10 -16
-5 0 -1 -5 9 -11 9 -6 15 -14 12 -20 -4 -5 -1 -9 5 -9 6 0 9 -4 6 -9 -3 -5 1
-12 10 -15 9 -4 14 -9 11 -13 -4 -3 1 -12 11 -20 11 -10 12 -12 2 -8 -8 4 -6
-1 4 -9 11 -9 16 -16 11 -16 -5 0 0 -7 11 -15 10 -8 15 -15 10 -15 -6 0 -1 -7
10 -15 10 -8 15 -15 10 -15 -6 0 -1 -7 10 -16 10 -8 12 -13 4 -9 -8 4 -4 -3
10 -15 14 -12 18 -19 10 -15 -8 4 -6 -1 4 -9 11 -9 16 -16 10 -16 -5 0 -1 -5
9 -11 9 -6 15 -14 12 -19 -3 -4 2 -11 11 -14 8 -3 13 -10 10 -15 -3 -5 1 -12
10 -15 8 -3 13 -10 10 -15 -3 -5 1 -12 10 -15 8 -3 13 -10 10 -15 -3 -5 1 -12
10 -15 8 -3 13 -10 10 -15 -3 -5 1 -12 9 -15 8 -3 14 -10 13 -15 -2 -5 6 -17
17 -26 11 -9 13 -14 5 -10 -8 4 -4 -3 10 -15 14 -12 18 -19 10 -15 -8 4 -4 -3
10 -14 14 -11 21 -21 15 -21 -5 0 -2 -5 8 -11 9 -6 15 -14 12 -19 -3 -5 4 -14
15 -20 11 -6 18 -15 15 -19 -3 -5 2 -12 10 -15 8 -3 14 -10 13 -15 -2 -5 6
-17 17 -26 11 -9 13 -13 5 -10 -8 4 -1 -5 15 -20 17 -14 23 -24 15 -20 -8 4
-6 -1 5 -10 11 -9 20 -20 20 -25 0 -5 9 -16 20 -25 11 -9 13 -13 5 -10 -8 4
-1 -5 15 -20 17 -14 23 -23 15 -20 -8 4 -1 -5 15 -20 17 -14 23 -23 15 -20 -8
4 -1 -5 15 -20 17 -14 23 -23 15 -20 -8 4 1 -8 20 -25 19 -17 28 -29 20 -25
-8 4 -1 -5 15 -20 17 -14 23 -23 15 -19 -8 3 1 -8 20 -25 19 -18 28 -29 20
-25 -8 3 1 -8 20 -26 19 -18 26 -27 15 -20 -11 7 -2 -4 20 -24 22 -21 33 -34
25 -30 -8 3 1 -8 20 -25 19 -18 28 -29 20 -26 -8 4 3 -10 25 -30 22 -20 33
-33 25 -30 -8 4 3 -10 25 -30 22 -21 31 -32 20 -25 -11 7 3 -9 30 -35 28 -26
41 -42 30 -35 -11 7 3 -9 30 -35 28 -26 41 -42 30 -35 -11 7 5 -12 36 -41 30
-30 46 -48 35 -40 -12 8 -3 -3 19 -25 22 -21 39 -43 37 -47 -1 -5 1 -6 6 -3 5
3 22 -9 38 -27 26 -29 27 -30 3 -12 -14 11 4 -8 40 -42 36 -34 66 -65 66 -70
0 -12 426 -438 438 -438 5 0 41 -34 80 -76 40 -41 63 -63 52 -49 -11 15 11 -5
49 -44 38 -39 63 -62 55 -50 -8 11 8 -2 35 -30 26 -28 45 -44 41 -36 -3 8 15
-7 41 -35 26 -27 41 -41 34 -30 -7 11 9 -2 35 -30 26 -27 42 -41 35 -30 -7 11
4 2 25 -20 20 -22 34 -33 30 -25 -3 8 10 -3 30 -25 20 -22 34 -33 30 -25 -3 8
10 -3 31 -25 20 -22 31 -31 24 -20 -7 11 5 2 25 -20 21 -22 32 -31 25 -20 -7
11 2 4 20 -15 18 -19 29 -28 26 -20 -4 8 7 -1 25 -20 17 -19 28 -28 25 -20 -4
8 5 2 19 -15 15 -16 24 -23 20 -15 -4 8 8 -1 25 -20 17 -19 29 -28 25 -20 -3
8 6 2 20 -15 15 -16 24 -23 20 -15 -3 8 6 2 20 -15 15 -16 24 -23 20 -15 -3 8
6 2 20 -15 15 -16 24 -23 20 -15 -3 8 1 6 10 -5 9 -11 20 -20 25 -20 5 0 16
-9 25 -20 9 -11 14 -13 10 -5 -4 8 6 2 20 -15 15 -16 24 -23 20 -15 -3 8 1 6
10 -5 9 -11 20 -20 25 -20 5 0 16 -9 25 -20 9 -11 14 -13 10 -5 -4 8 1 6 10
-5 9 -11 20 -20 26 -20 5 0 14 -7 19 -15 5 -8 10 -10 10 -5 0 6 10 -1 21 -15
11 -14 18 -18 14 -10 -4 8 3 4 15 -10 12 -14 19 -18 15 -10 -4 8 1 6 10 -5 9
-11 21 -19 26 -17 5 1 12 -5 15 -13 3 -8 10 -12 15 -9 5 3 12 -2 15 -10 3 -9
10 -13 15 -10 5 3 12 -2 15 -10 3 -9 10 -13 15 -10 5 3 12 -2 15 -10 3 -9 10
-13 15 -10 5 3 12 -2 15 -10 3 -9 10 -14 14 -11 5 3 13 -3 19 -12 6 -10 11
-14 11 -9 0 6 7 1 16 -10 8 -10 13 -12 9 -4 -4 8 3 4 15 -10 12 -14 19 -18 15
-10 -4 8 1 6 9 -4 9 -11 16 -16 16 -10 0 5 7 0 15 -10 8 -11 15 -16 15 -10 0
5 7 0 15 -10 8 -11 15 -16 15 -11 0 5 7 0 16 -11 8 -10 13 -12 9 -4 -4 10 -2
9 8 -2 8 -10 17 -15 20 -11 4 3 9 -2 13 -11 3 -9 10 -13 15 -10 5 3 9 0 9 -6
0 -6 4 -9 9 -5 6 3 14 -3 20 -12 6 -10 11 -14 11 -9 0 6 7 1 16 -10 8 -10 13
-12 9 -4 -4 8 1 6 9 -4 9 -11 16 -16 16 -11 0 5 7 0 16 -11 8 -10 13 -12 9 -4
-4 10 -2 9 8 -2 8 -10 17 -15 20 -11 4 3 7 1 7 -6 0 -7 5 -9 10 -6 6 3 13 -1
16 -9 3 -9 10 -13 15 -10 5 3 9 0 9 -6 0 -6 5 -8 10 -5 6 3 13 -1 16 -9 3 -9
10 -13 15 -10 5 3 9 0 9 -6 0 -6 4 -8 10 -5 5 3 10 1 10 -5 0 -6 5 -8 10 -5 6
3 13 -1 16 -9 3 -9 10 -13 15 -10 5 3 9 0 9 -6 0 -6 4 -8 10 -5 5 3 10 1 10
-5 0 -6 5 -8 10 -5 6 3 13 -1 16 -9 3 -9 10 -13 15 -10 5 3 9 0 9 -6 0 -6 4
-8 10 -5 5 3 10 1 10 -6 0 -7 3 -9 7 -6 3 4 12 -1 20 -11 8 -9 11 -11 8 -4 -6
11 -3 12 14 3 11 -7 21 -16 21 -22 0 -6 4 -7 10 -4 5 3 10 1 10 -5 0 -6 5 -8
10 -5 6 3 10 1 10 -5 0 -6 5 -8 10 -5 6 3 10 1 10 -5 0 -6 4 -9 10 -5 5 3 18
-3 29 -14 11 -11 22 -17 25 -14 3 4 6 1 6 -6 0 -7 5 -9 10 -6 6 3 10 1 10 -5
0 -6 5 -8 10 -5 6 3 10 1 10 -5 0 -6 5 -8 10 -5 6 3 10 1 10 -5 0 -6 4 -8 10
-5 5 3 10 1 10 -5 0 -6 4 -8 10 -5 5 3 10 1 10 -5 0 -6 5 -8 10 -5 6 3 10 1
10 -5 0 -6 4 -8 10 -5 5 3 10 1 10 -5 0 -6 5 -8 10 -5 6 3 10 1 10 -5 0 -6 5
-8 10 -5 6 3 10 1 10 -5 0 -6 5 -8 10 -5 6 3 10 1 10 -5 0 -6 4 -8 10 -5 6 3
10 1 10 -5 0 -6 5 -8 10 -5 6 3 10 1 10 -5 0 -6 5 -8 10 -5 6 3 10 1 10 -5 0
-6 4 -8 10 -5 6 3 10 1 10 -5 0 -6 4 -8 10 -5 5 3 10 1 10 -5 0 -6 4 -8 10 -5
5 3 10 1 10 -5 0 -6 5 -8 10 -5 6 3 10 1 10 -5 0 -6 4 -8 10 -5 5 3 10 1 10
-5 0 -6 4 -8 10 -5 5 3 10 1 10 -5 0 -6 5 -8 10 -5 6 3 10 1 10 -5 0 -6 5 -8
10 -5 6 3 10 2 10 -4 0 -6 7 -7 17 -4 11 4 14 3 9 -5 -4 -8 -2 -10 7 -6 8 3
21 -2 30 -10 8 -8 17 -12 21 -9 3 4 6 1 6 -6 0 -7 5 -9 10 -6 6 3 10 1 10 -5
0 -6 5 -8 10 -5 6 3 10 2 10 -4 0 -6 7 -7 17 -4 11 4 14 3 9 -5 -5 -8 -2 -10
8 -6 9 3 16 1 16 -6 0 -6 4 -8 10 -5 5 3 10 1 10 -5 0 -6 5 -8 10 -5 6 3 10 1
10 -5 0 -6 5 -8 10 -5 6 3 10 2 10 -4 0 -6 7 -8 15 -5 8 4 15 1 15 -6 0 -6 5
-8 10 -5 6 3 10 1 10 -5 0 -6 4 -8 10 -5 5 3 10 2 10 -4 0 -6 7 -8 15 -5 8 4
15 1 15 -6 0 -6 4 -8 10 -5 6 3 10 1 10 -5 0 -6 4 -8 10 -5 6 3 10 2 10 -4 0
-6 7 -8 15 -5 8 4 15 1 15 -6 0 -6 5 -8 10 -5 6 3 10 1 10 -5 0 -6 5 -8 10 -5
6 3 10 2 10 -4 0 -6 7 -8 15 -5 8 4 15 1 15 -6 0 -6 5 -8 10 -5 6 3 10 2 10
-4 0 -6 7 -8 15 -5 8 4 15 1 15 -6 0 -6 4 -8 10 -5 5 3 10 2 10 -4 0 -6 7 -8
15 -5 8 4 15 1 15 -6 0 -6 4 -8 10 -5 5 3 10 2 10 -4 0 -6 7 -8 15 -5 8 4 15
1 15 -6 0 -6 5 -8 10 -5 6 3 10 2 10 -4 0 -6 7 -8 15 -5 8 4 15 1 15 -6 0 -6
4 -8 10 -5 6 3 10 2 10 -4 0 -6 7 -8 15 -5 8 4 15 1 15 -6 0 -6 4 -9 9 -5 5 3
12 1 16 -5 4 -6 11 -8 16 -5 5 4 9 2 9 -4 0 -6 7 -8 15 -5 8 4 15 1 15 -5 0
-6 7 -8 17 -4 12 5 14 3 8 -7 -6 -10 -4 -12 8 -7 10 3 17 2 17 -3 0 -5 7 -7
15 -4 8 4 15 1 15 -5 0 -6 7 -8 15 -5 8 4 15 1 15 -6 0 -6 4 -9 9 -5 5 3 12 1
16 -5 4 -6 11 -8 16 -5 5 4 9 2 9 -4 0 -6 7 -8 15 -5 8 4 15 1 15 -5 0 -6 7
-8 15 -5 8 4 15 1 15 -5 0 -6 7 -8 15 -5 8 4 15 1 15 -5 0 -6 7 -8 15 -5 8 4
15 1 15 -5 0 -6 7 -8 15 -5 8 4 15 1 15 -5 0 -6 7 -8 15 -5 8 4 15 1 15 -5 0
-6 7 -8 15 -5 8 4 15 1 15 -5 0 -6 7 -8 15 -5 8 4 15 1 15 -5 0 -6 7 -8 15 -5
8 4 15 1 15 -5 0 -6 7 -8 15 -5 8 4 15 1 15 -5 0 -6 7 -8 15 -5 8 4 15 1 15
-5 0 -6 7 -8 15 -5 8 4 15 1 15 -5 0 -6 7 -8 15 -5 8 4 15 1 15 -5 0 -6 6 -8
14 -5 8 3 17 1 20 -5 4 -6 13 -8 21 -4 8 3 15 0 15 -6 0 -6 7 -8 15 -5 8 4 15
1 15 -5 0 -6 7 -8 15 -5 8 4 15 1 15 -6 0 -7 8 -9 20 -5 11 4 20 2 20 -4 0 -6
7 -8 15 -5 8 4 15 1 15 -5 0 -6 6 -8 14 -5 8 3 17 1 20 -5 4 -6 13 -8 21 -4 8
3 15 1 15 -5 0 -6 9 -8 20 -5 11 3 20 0 20 -6 0 -5 7 -8 15 -5 8 4 15 1 15 -6
0 -7 8 -9 20 -5 11 4 20 2 20 -4 0 -6 6 -8 14 -5 8 3 17 1 20 -5 4 -6 13 -8
20 -5 8 3 17 1 20 -5 4 -6 13 -8 21 -4 8 3 15 0 15 -7 0 -7 8 -9 20 -5 12 4
20 2 20 -5 0 -7 8 -9 20 -5 12 4 20 2 20 -5 0 -7 8 -9 20 -5 12 4 20 2 20 -5
0 -7 8 -9 20 -5 12 4 20 2 20 -5 0 -7 8 -9 20 -5 12 4 20 2 20 -5 0 -7 8 -9
19 -5 11 3 22 1 25 -4 4 -6 13 -8 20 -5 8 3 17 1 20 -4 3 -6 15 -8 26 -5 12 3
20 0 20 -7 0 -7 8 -9 19 -5 11 3 22 2 25 -4 3 -5 15 -7 26 -4 11 3 20 0 20 -6
0 -7 9 -9 25 -5 16 4 25 2 25 -6 0 -7 8 -9 19 -5 11 3 22 2 25 -4 3 -5 15 -7
25 -4 10 3 22 0 25 -5 3 -6 15 -8 25 -5 10 3 22 0 25 -5 3 -6 15 -8 25 -5 10
3 22 0 25 -6 4 -6 18 -8 32 -5 15 4 24 2 24 -5 0 -7 9 -9 24 -5 13 3 26 1 30
-4 3 -5 17 -7 31 -4 15 2 25 0 25 -7 0 -7 9 -9 24 -5 13 3 27 1 31 -5 3 -6 17
-8 30 -5 12 3 26 1 29 -5 4 -6 20 -8 36 -4 19 3 30 1 30 -5 0 -7 11 -9 29 -6
16 3 32 1 35 -5 4 -6 20 -8 35 -5 16 3 32 1 35 -5 4 -6 20 -8 35 -5 16 3 32 1
35 -5 4 -6 20 -8 35 -5 16 3 32 1 35 -5 4 -6 20 -8 36 -4 17 3 36 0 44 -6 7
-6 26 -8 43 -5 18 4 33 1 37 -5 5 -7 22 -9 45 -5 23 4 41 2 45 -5 4 -6 24 -8
50 -5 28 4 46 2 50 -5 5 -8 24 -9 55 -5 32 4 51 2 56 -5 4 -8 22 -10 51 -5 24
3 52 3 61 -2 10 -4 47 -9 83 -11 36 -1 110 -4 165 -7 130 -6 1010 -6 1140 0
55 3 129 6 165 7 36 2 73 7 83 11 9 5 37 5 61 2 29 -5 47 -3 51 5 5 7 24 9 56
5 31 -4 50 -3 55 5 4 7 22 9 50 5 26 -3 46 -1 50 5 4 7 22 9 45 5 23 -4 40 -2
45 5 4 6 19 9 37 5 17 -3 36 -1 43 5 8 6 27 9 44 6 16 -4 32 -2 36 4 3 6 19 8
35 5 15 -3 31 -1 35 5 4 6 20 8 40 4 23 -4 34 -2 34 6 0 7 10 9 30 6 16 -4 32
-2 36 4 3 6 19 8 35 5 18 -3 29 -1 29 5 0 7 11 9 30 6 16 -4 32 -2 36 4 3 6
17 8 29 5 13 -3 27 -1 30 5 4 6 18 8 31 5 15 -4 24 -2 24 5 0 7 10 9 25 7 14
-3 28 -1 31 4 4 5 17 7 30 4 15 -4 24 -2 24 5 0 7 9 9 24 5 14 -3 28 -1 32 5
3 6 15 9 25 6 10 -3 22 -1 25 5 3 5 15 8 25 5 10 -3 22 -1 25 5 3 5 15 8 25 5
10 -3 22 -1 25 4 3 6 14 7 25 4 11 -4 19 -2 19 5 0 8 9 10 25 6 16 -4 25 -2
25 5 0 6 9 9 20 6 11 -3 23 -1 26 4 3 6 14 7 25 4 11 -4 19 -2 19 5 0 7 8 10
20 7 11 -3 23 -1 26 5 3 5 12 7 20 4 7 -3 16 -1 20 5 3 5 14 7 25 4 11 -4 19
-2 19 5 0 7 8 9 20 5 12 -4 20 -2 20 5 0 7 8 9 20 5 12 -4 20 -2 20 5 0 7 8 9
20 5 12 -4 20 -2 20 5 0 7 8 9 20 5 12 -4 20 -2 20 5 0 7 8 9 20 5 12 -4 20
-2 20 5 0 7 7 10 15 7 8 -4 17 -2 21 4 3 6 12 8 20 5 7 -3 16 -1 20 5 3 6 12
8 20 5 8 -3 14 -1 14 5 0 6 9 8 20 4 12 -4 20 -2 20 5 0 7 7 10 15 6 8 -3 15
0 15 5 0 6 9 9 20 6 11 -3 20 -1 20 5 0 6 7 8 15 5 8 -4 17 -2 21 4 3 6 12 8
20 5 8 -3 14 -1 14 5 0 6 7 9 15 5 8 -3 15 -1 15 5 0 6 9 8 20 4 12 -4 20 -2
20 5 0 7 7 10 15 6 8 -3 15 -1 15 5 0 6 7 9 15 5 8 -3 15 -1 15 5 0 6 7 9 15
6 8 -4 17 -2 21 4 3 6 12 8 20 5 8 -3 14 -1 14 5 0 6 7 9 15 5 8 -3 15 -1 15
5 0 6 7 9 15 5 8 -3 15 -1 15 5 0 6 7 9 15 5 8 -3 15 -1 15 5 0 6 7 9 15 5 8
-3 15 -1 15 5 0 6 7 9 15 5 8 -3 15 -1 15 5 0 6 7 9 15 5 8 -3 15 -1 15 5 0 6
7 9 15 5 8 -3 15 -1 15 5 0 6 7 9 15 5 8 -3 15 -1 15 5 0 6 7 9 15 5 8 -3 15
-1 15 5 0 6 7 9 15 5 8 -3 15 -1 15 5 0 6 7 9 15 5 8 -3 15 -1 15 5 0 6 7 9
15 5 8 -3 15 -1 15 5 0 6 7 9 15 5 8 -3 15 -1 15 5 0 6 4 8 9 4 5 -3 12 -1 16
5 4 6 11 8 16 5 5 -4 9 -1 9 5 0 7 7 10 15 6 8 -3 15 -1 15 5 0 6 7 9 15 5 8
-3 15 -1 15 5 0 6 5 7 10 4 6 -3 10 -1 10 5 0 7 7 10 15 6 8 -3 15 -1 15 5 0
6 7 9 15 5 8 -3 15 -1 15 5 0 6 4 8 9 4 5 -3 12 -1 16 5 4 6 11 8 16 5 5 -4 9
-1 9 5 0 7 7 10 15 6 8 -3 15 -1 15 5 0 6 5 7 10 4 6 -3 10 -1 10 5 0 7 7 10
15 6 8 -3 15 -1 15 5 0 6 5 7 10 4 6 -3 10 -1 10 5 0 7 7 10 15 6 8 -3 15 -1
15 5 0 6 5 7 10 4 6 -3 10 -1 10 5 0 7 7 10 15 6 8 -3 15 -1 15 5 0 6 5 7 10
4 6 -3 10 -1 10 5 0 7 7 10 15 6 8 -3 15 -1 15 5 0 6 5 7 10 4 6 -3 10 -1 10
5 0 7 7 10 15 6 8 -3 15 -1 15 5 0 6 5 7 10 4 6 -3 10 -1 10 5 0 6 5 8 10 5 6
-3 10 -1 10 5 0 7 7 10 15 6 8 -3 15 -1 15 5 0 6 5 7 10 4 6 -3 10 -1 10 5 0
6 5 8 10 5 6 -3 10 -1 10 5 0 7 7 10 15 6 8 -3 15 -1 15 5 0 6 5 7 10 4 6 -3
10 -1 10 5 0 6 5 8 10 5 6 -3 10 -1 10 5 0 7 7 10 15 6 8 -3 15 -1 15 5 0 6 5
7 10 4 6 -3 10 -1 10 5 0 6 5 8 10 5 6 -3 10 -1 10 5 0 6 5 8 10 5 6 -3 10 -1
10 5 0 7 7 10 15 6 8 -3 15 -1 15 5 0 6 5 7 10 4 6 -3 10 -1 10 5 0 6 5 8 10
5 6 -3 10 -1 10 5 0 6 5 8 10 5 6 -3 10 -1 10 6 0 7 3 10 6 6 4 -3 13 1 21 9
9 8 22 13 30 10 9 -4 11 -2 7 6 -5 8 -2 9 9 5 10 -3 17 -2 17 4 0 6 5 7 10 4
6 -3 10 -1 10 5 0 6 5 8 10 5 6 -3 10 -1 10 5 0 6 5 8 10 5 6 -3 10 -1 10 5 0
6 5 8 10 5 6 -3 10 -1 10 5 0 6 5 8 10 5 6 -3 10 -1 10 5 0 6 5 8 10 5 6 -3
10 -1 10 5 0 6 5 8 10 5 6 -3 10 -1 10 5 0 6 5 8 10 5 6 -3 10 -1 10 5 0 6 5
8 10 5 6 -3 10 -1 10 5 0 6 5 8 10 5 6 -3 10 -1 10 5 0 6 5 8 10 5 6 -3 10 -1
10 5 0 6 5 8 10 5 6 -3 10 -1 10 5 0 6 5 8 10 5 6 -3 10 -1 10 5 0 6 5 8 10 5
6 -3 10 -1 10 5 0 6 5 8 10 5 6 -3 10 -1 10 5 0 6 5 8 10 5 6 -3 10 -1 10 5 0
6 5 8 10 5 6 -3 10 -1 10 5 0 6 5 8 10 5 6 -3 10 -1 10 5 0 6 5 8 10 5 6 -3
10 -1 10 5 0 6 5 8 10 5 6 -3 10 -1 10 5 0 6 5 8 10 5 6 -3 10 -1 10 6 0 7 3
10 6 6 3 -3 14 3 25 14 11 11 24 17 29 14 6 -4 10 -1 10 5 0 6 5 8 10 5 6 -3
10 -1 10 5 0 6 5 8 10 5 6 -3 10 -1 10 6 0 7 3 10 6 6 3 -3 14 3 25 14 11 11
24 17 29 14 6 -4 10 -1 10 5 0 6 5 8 10 5 6 -3 10 -1 10 6 0 7 3 10 6 6 3 -3
14 3 25 14 11 11 24 17 29 14 6 -4 10 -1 10 5 0 6 5 8 10 5 6 -3 10 -1 10 5 0
6 4 9 9 6 5 -3 12 1 15 10 3 8 10 12 16 9 5 -3 10 -1 10 5 0 6 5 8 10 5 6 -3
10 -1 10 5 0 6 4 9 9 6 5 -3 12 1 15 10 3 8 10 12 16 9 5 -3 10 -1 10 6 0 7 3
9 7 6 3 -4 12 1 20 11 10 11 12 12 8 2 -4 -8 1 -6 9 4 9 11 16 16 16 11 0 -5
7 0 16 11 8 10 13 12 9 4 -4 -8 1 -6 9 4 9 11 16 16 16 11 0 -5 7 0 16 11 8
10 13 12 9 4 -4 -8 1 -6 9 4 9 11 16 16 16 10 0 -5 5 -1 11 9 6 9 14 15 20 12
5 -4 9 -1 9 5 0 6 4 9 9 6 5 -3 12 1 15 10 4 9 9 14 13 11 3 -4 12 1 20 11 10
11 12 12 8 2 -4 -8 1 -6 9 4 9 11 16 16 16 11 0 -5 7 0 15 11 8 10 15 15 15
10 0 -6 7 -1 15 10 8 10 15 15 15 10 0 -6 7 -1 16 10 8 10 13 12 9 4 -4 -8 3
-4 15 10 12 14 19 18 15 10 -4 -8 1 -6 9 4 9 11 16 16 16 10 0 -5 5 -1 11 9 6
9 14 15 19 12 4 -3 11 2 14 11 3 8 10 13 15 10 5 -3 12 1 15 10 3 8 10 13 15
10 5 -3 12 1 15 10 3 8 10 13 15 10 5 -3 12 1 15 10 3 8 10 13 15 10 5 -3 12
1 15 10 4 9 9 14 12 11 4 -3 15 4 26 16 11 12 17 15 13 7 -4 -8 3 -4 15 10 12
14 19 18 15 10 -4 -8 3 -4 14 10 11 14 21 21 21 15 0 -5 5 -3 10 5 5 8 14 15
19 15 6 0 17 9 26 20 9 11 14 13 10 5 -4 -8 1 -6 10 5 9 11 20 20 25 20 5 0
16 9 25 20 9 11 13 13 10 5 -4 -8 5 -1 20 15 14 17 24 23 20 15 -4 -8 1 -6 10
5 9 11 20 20 25 20 5 0 16 9 25 20 9 11 13 13 10 5 -4 -8 5 -1 20 15 14 17 23
23 20 15 -4 -8 5 -1 20 15 14 17 23 23 20 15 -4 -8 5 -1 20 15 14 17 23 23 20
15 -4 -8 8 1 25 20 17 19 29 28 25 20 -4 -8 5 -1 20 15 14 17 23 23 19 15 -3
-8 8 1 25 20 18 19 29 28 25 20 -3 -8 8 1 25 20 18 19 29 28 25 20 -3 -8 8 1
26 20 18 19 27 26 20 15 -7 -11 4 -2 24 20 21 22 34 33 31 25 -4 -8 10 3 30
25 21 22 32 31 25 20 -7 -11 7 0 30 25 23 25 37 36 30 25 -7 -11 9 3 35 30 26
28 42 41 35 30 -7 -11 9 3 35 30 26 28 42 41 35 30 -7 -11 12 5 41 36 30 30
50 48 44 39 -5 -9 9 4 33 29 24 25 47 45 52 44 5 -1 36 29 70 67 34 39 65 68
69 65 11 -6 73 60 64 69 -5 4 -3 6 2 5 12 -4 381 360 378 371 -1 5 29 36 67
70 38 34 68 65 67 70 -1 5 19 28 44 52 25 24 38 39 29 33 -9 -5 9 14 39 44 31
29 47 48 36 41 -11 -7 3 9 30 35 28 26 41 42 30 35 -11 -7 3 9 30 35 28 26 41
42 30 35 -11 -7 0 7 25 30 25 23 36 37 25 30 -11 -7 -2 4 20 25 22 20 33 34
25 30 -8 -3 3 10 25 31 22 20 31 31 20 24 -11 -7 -4 2 15 20 19 18 28 29 20
26 -8 -4 1 7 20 25 19 17 28 28 20 25 -8 -4 1 7 20 25 19 17 28 28 20 25 -8
-4 -1 5 15 19 17 15 23 24 15 20 -8 -4 1 8 20 25 19 17 28 29 20 25 -8 -3 -1
6 15 20 17 15 23 24 15 20 -8 -3 -1 6 15 20 17 15 23 24 15 20 -8 -3 -1 6 15
20 17 15 23 24 15 20 -8 -3 -6 1 5 10 11 9 20 20 20 25 0 5 9 16 20 25 11 9
13 14 5 10 -8 -4 -1 6 15 20 17 15 23 24 15 20 -8 -3 -6 1 5 10 11 9 20 20 20
25 0 5 9 16 20 25 11 9 13 14 5 10 -8 -4 -6 1 5 10 11 9 20 20 20 26 0 5 7 14
15 19 8 5 11 10 5 10 -5 0 1 10 15 21 14 11 18 18 10 14 -8 -4 -4 3 10 15 14
12 18 19 10 15 -8 -4 -5 2 7 13 12 11 19 22 16 26 -3 3 2 8 11 12 9 3 13 10
10 15 -3 5 2 12 10 15 9 3 13 10 10 15 -3 5 2 12 10 15 9 3 13 10 10 15 -3 5
2 12 10 15 9 3 13 10 10 15 -3 5 2 12 10 15 9 3 14 10 11 14 -3 5 3 13 12 19
10 6 14 11 9 11 -6 0 -1 7 10 16 10 8 12 13 4 9 -8 -4 -4 3 10 15 14 12 18 19
10 15 -8 -4 -6 1 4 9 11 9 16 16 10 16 -5 0 0 7 10 15 11 8 16 15 10 15 -5 0
0 7 10 15 11 8 16 15 11 15 -5 0 0 7 11 16 10 8 12 13 4 9 -10 -4 -9 -2 2 8
10 8 15 17 11 20 -3 4 2 9 11 13 9 3 13 10 10 15 -3 5 0 9 6 9 6 0 9 4 5 9 -3
6 3 14 12 20 10 6 14 11 9 11 -6 0 -1 7 10 16 10 8 12 13 4 9 -8 -4 -6 1 4 9
11 9 16 16 11 16 -5 0 0 7 11 16 10 8 12 13 4 9 -8 -4 -6 1 4 9 11 9 16 16 11
16 -5 0 0 7 11 16 10 8 12 13 4 9 -10 -4 -9 -2 2 8 10 8 15 17 11 20 -3 4 -1
7 6 7 7 0 9 5 6 10 -3 6 1 13 9 16 9 3 13 10 10 15 -3 5 0 9 6 9 6 0 8 5 5 10
-3 6 -1 10 5 10 6 0 8 5 5 10 -3 6 1 13 9 16 9 3 13 10 10 15 -3 5 0 9 6 9 6
0 8 5 5 10 -3 6 -1 10 5 10 6 0 8 5 5 10 -3 6 1 13 9 16 9 3 13 10 10 15 -3 5
0 9 6 9 6 0 8 4 5 10 -3 5 -1 10 5 10 6 0 8 5 5 10 -3 6 -1 10 5 10 6 0 9 4 5
10 -3 5 3 18 14 29 11 11 17 22 14 25 -4 3 -1 6 6 6 7 0 9 4 6 10 -3 5 -1 10
5 10 6 0 8 5 5 10 -3 6 -1 10 5 10 6 0 9 4 5 10 -3 5 3 18 14 29 11 11 17 22
14 25 -4 3 -1 6 6 6 7 0 9 5 6 10 -3 6 -1 10 5 10 6 0 8 4 5 10 -3 5 -1 10 5
10 6 0 8 4 5 10 -3 6 -1 10 5 10 6 0 8 4 5 10 -3 5 -1 10 5 10 6 0 8 5 5 10
-3 6 -1 10 5 10 6 0 8 5 5 10 -3 6 -1 10 5 10 6 0 8 4 5 10 -3 5 -1 10 5 10 6
0 8 5 5 10 -3 6 -1 10 5 10 6 0 8 4 5 10 -3 5 -1 10 5 10 6 0 8 4 5 10 -3 6
-1 10 5 10 6 0 8 5 5 10 -3 6 -1 10 5 10 6 0 8 5 5 10 -3 6 -1 10 5 10 6 0 8
4 5 10 -3 5 -1 10 5 10 6 0 8 4 5 10 -3 5 -1 10 5 10 6 0 8 5 5 10 -3 6 -1 10
5 10 6 0 8 4 5 10 -3 5 -1 10 5 10 6 0 8 5 5 10 -3 5 -1 10 5 10 6 0 8 4 5 10
-3 6 -1 10 5 10 6 0 8 5 5 10 -3 6 -1 10 5 10 6 0 8 4 5 10 -3 5 -1 10 5 10 6
0 8 5 5 10 -3 6 -2 10 4 10 6 0 7 7 4 17 -4 11 -3 14 5 9 8 -4 10 -2 6 7 -3 8
2 21 10 30 8 8 12 17 9 21 -4 3 -1 6 6 6 7 0 9 5 6 10 -3 6 -1 10 5 10 6 0 8
4 5 10 -3 5 -2 10 4 10 6 0 7 7 4 17 -4 11 -3 14 5 9 8 -5 10 -2 6 8 -3 9 -1
16 6 16 6 0 8 4 5 10 -3 5 -1 10 5 10 6 0 8 5 5 10 -3 6 -1 10 5 10 6 0 8 5 5
10 -3 6 -2 10 4 10 6 0 8 7 5 15 -4 8 -1 15 6 15 6 0 8 5 5 10 -3 5 -1 10 5
10 6 0 8 4 5 10 -3 6 -2 10 4 10 6 0 8 7 5 15 -4 8 -1 15 6 15 6 0 8 5 5 10
-3 6 -1 10 5 10 6 0 8 4 5 10 -3 6 -2 10 4 10 6 0 8 7 5 15 -4 8 -1 15 6 15 6
0 8 5 5 10 -3 6 -1 10 5 10 6 0 8 4 5 10 -3 6 -2 10 4 10 6 0 8 7 5 15 -4 8
-1 15 6 15 6 0 8 5 5 10 -3 6 -2 10 4 10 6 0 8 7 5 15 -4 8 -1 15 6 15 6 0 8
4 5 10 -3 5 -2 10 4 10 6 0 8 7 5 15 -4 8 -1 15 6 15 6 0 8 5 5 10 -3 6 -2 10
4 10 6 0 8 7 5 15 -4 8 -1 15 6 15 6 0 8 5 5 10 -3 6 -2 10 4 10 6 0 8 7 5 15
-4 8 -1 15 6 15 6 0 8 5 5 10 -3 6 -2 10 4 10 6 0 8 7 5 15 -4 8 -1 15 6 15 6
0 9 4 5 9 -3 5 -1 12 5 16 6 4 8 11 5 16 -4 5 -2 9 4 9 6 0 8 7 5 15 -4 8 -1
15 6 15 6 0 9 4 5 9 -3 5 -1 12 5 16 6 4 8 11 5 16 -4 5 -2 9 4 9 6 0 8 7 5
15 -4 8 -1 15 5 15 6 0 8 7 5 15 -4 8 -1 15 6 15 6 0 9 4 5 9 -3 5 -1 12 5 16
6 4 8 11 5 16 -4 5 -2 9 4 9 6 0 8 7 5 15 -4 8 -1 15 5 15 6 0 8 7 5 15 -4 8
-1 15 5 15 6 0 8 7 5 15 -4 8 -1 15 5 15 6 0 8 7 5 15 -4 8 -1 15 5 15 6 0 8
7 5 15 -4 8 -1 15 5 15 6 0 8 7 5 15 -4 8 -1 15 5 15 6 0 8 7 5 15 -4 8 -1 15
5 15 6 0 8 7 5 15 -4 8 -1 15 5 15 6 0 8 7 5 15 -4 8 -1 15 5 15 6 0 8 7 5 15
-4 8 -1 15 5 15 6 0 8 7 5 15 -4 8 -1 15 5 15 6 0 8 7 5 15 -4 8 -1 15 5 15 6
0 8 7 5 15 -4 8 -1 15 5 15 6 0 8 6 5 14 -3 8 -1 17 5 20 6 4 8 13 4 21 -3 8
0 15 6 15 6 0 8 7 5 15 -4 8 -1 15 5 15 6 0 8 7 5 15 -4 8 -1 15 6 15 7 0 9 8
5 20 -4 11 -2 20 4 20 6 0 8 7 5 15 -4 8 -1 15 5 15 6 0 8 6 5 14 -3 8 -1 17
5 20 6 4 8 13 4 21 -3 8 -1 15 5 15 6 0 8 9 5 20 -3 11 0 20 6 20 5 0 8 7 5
15 -4 8 -1 15 6 15 7 0 9 8 5 20 -4 11 -2 20 4 20 6 0 8 6 5 14 -3 8 -1 17 5
20 6 4 8 13 5 20 -3 8 -1 17 5 20 6 4 8 13 4 21 -3 8 0 15 7 15 7 0 9 8 5 20
-4 12 -2 20 5 20 7 0 9 8 5 20 -4 12 -2 20 5 20 7 0 9 8 5 20 -4 12 -2 20 5
20 7 0 9 8 5 20 -4 12 -2 20 5 20 7 0 9 8 5 20 -4 12 -2 20 5 20 7 0 9 8 5 19
-3 11 -1 22 4 25 6 4 8 13 5 20 -3 8 -1 17 4 20 6 3 8 15 5 26 -3 12 0 20 7
20 7 0 9 8 5 19 -3 11 -2 22 4 25 5 3 7 15 4 26 -3 11 0 20 6 20 7 0 9 9 5 25
-4 16 -2 25 6 25 7 0 9 8 5 19 -3 11 -2 22 4 25 5 3 7 15 4 25 -3 10 0 22 5
25 6 3 8 15 5 25 -3 10 0 22 5 25 6 3 8 15 5 25 -3 10 0 22 6 25 6 4 8 18 5
32 -4 15 -2 24 5 24 7 0 9 9 5 24 -3 13 -1 26 4 30 5 3 7 17 4 31 -2 15 0 25
7 25 7 0 9 9 5 24 -3 13 -1 27 5 31 6 3 8 17 5 30 -3 12 -1 26 5 29 6 4 8 20
4 36 -3 19 -1 30 6 30 6 0 8 11 5 29 -3 16 -1 32 5 35 6 4 8 20 4 36 -3 20 -1
30 6 30 8 0 10 11 6 34 -4 20 -2 36 4 40 6 4 8 20 5 35 -3 16 -1 32 5 35 6 4
8 20 4 36 -3 17 0 36 6 44 6 7 8 26 5 43 -4 18 -1 33 5 37 7 5 9 22 5 45 -4
23 -2 41 5 45 6 4 8 24 5 50 -4 28 -2 46 5 50 8 5 9 24 5 55 -4 32 -2 51 5 56
8 4 10 22 5 51 -3 24 -3 52 2 61 4 10 9 47 11 83 1 36 4 110 7 165 3 55 5 312
5 570 0 259 -2 515 -5 570 -3 55 -6 129 -7 165 -2 36 -7 73 -11 83 -5 9 -5 37
-2 61 5 29 3 47 -5 51 -7 5 -9 24 -5 56 4 31 3 50 -5 55 -7 4 -9 22 -5 50 3
26 1 46 -5 50 -7 4 -9 22 -5 45 4 23 2 40 -5 45 -6 4 -9 19 -5 37 3 17 1 36
-5 43 -6 8 -9 27 -6 44 4 16 2 32 -4 36 -6 3 -8 19 -5 35 3 15 1 31 -5 35 -6
4 -8 20 -4 40 4 23 2 34 -6 34 -7 0 -9 10 -6 30 4 16 2 32 -4 36 -6 3 -8 19
-5 35 3 18 1 29 -5 29 -7 0 -9 11 -6 30 4 16 2 32 -4 36 -6 3 -8 17 -5 29 3
13 1 27 -5 30 -6 4 -8 18 -5 31 4 15 2 24 -5 24 -7 0 -9 10 -7 25 3 14 1 28
-4 31 -5 4 -7 17 -4 30 4 15 2 24 -5 24 -7 0 -9 9 -5 24 3 14 1 28 -5 32 -6 3
-9 15 -6 25 3 10 1 22 -5 25 -5 3 -8 15 -5 25 3 10 1 22 -5 25 -5 3 -8 15 -5
25 3 10 1 22 -4 25 -6 3 -7 14 -4 25 4 11 2 19 -5 19 -8 0 -10 9 -6 25 4 16 2
25 -5 25 -6 0 -9 9 -6 20 3 11 1 23 -4 26 -6 3 -7 14 -4 25 4 11 2 19 -5 19
-7 0 -10 8 -7 20 3 11 1 23 -5 26 -5 3 -7 12 -4 20 3 7 1 16 -5 20 -5 3 -7 14
-4 25 4 11 2 19 -5 19 -7 0 -9 8 -5 20 4 12 2 20 -5 20 -7 0 -9 8 -5 20 4 12
2 20 -5 20 -7 0 -9 8 -5 20 4 12 2 20 -5 20 -7 0 -9 8 -5 20 4 12 2 20 -5 20
-7 0 -9 8 -5 20 4 12 2 20 -5 20 -7 0 -9 8 -5 20 4 12 2 20 -5 20 -7 0 -10 7
-7 15 4 8 2 17 -4 21 -6 3 -8 12 -5 20 3 8 1 14 -5 14 -6 0 -8 9 -4 20 4 12 2
20 -5 20 -7 0 -10 7 -6 15 3 8 0 15 -5 15 -6 0 -9 9 -6 20 3 11 1 20 -5 20 -6
0 -8 7 -5 15 4 8 2 17 -4 21 -6 3 -8 12 -5 20 3 8 1 14 -5 14 -6 0 -9 7 -5 15
3 8 1 15 -5 15 -6 0 -8 9 -4 20 4 12 2 20 -5 20 -7 0 -10 7 -6 15 3 8 1 15 -5
15 -6 0 -9 7 -5 15 3 8 1 15 -5 15 -6 0 -9 7 -6 15 4 8 2 17 -4 21 -6 3 -8 12
-5 20 3 8 1 14 -5 14 -6 0 -9 7 -5 15 3 8 1 15 -5 15 -6 0 -9 7 -5 15 3 8 1
15 -5 15 -6 0 -9 7 -5 15 3 8 1 15 -5 15 -6 0 -9 7 -5 15 3 8 1 15 -5 15 -6 0
-9 7 -5 15 3 8 1 15 -5 15 -6 0 -9 7 -5 15 3 8 1 15 -5 15 -6 0 -9 7 -5 15 3
8 1 15 -5 15 -6 0 -9 7 -5 15 3 8 1 15 -5 15 -6 0 -9 7 -5 15 3 8 1 15 -5 15
-6 0 -9 7 -5 15 3 8 1 15 -5 15 -6 0 -9 7 -5 15 3 8 1 15 -5 15 -6 0 -9 7 -5
15 3 8 1 15 -5 15 -6 0 -9 7 -5 15 3 8 1 15 -5 15 -6 0 -8 4 -4 9 3 5 1 12 -5
16 -6 4 -8 11 -5 16 4 5 1 9 -5 9 -7 0 -10 7 -6 15 3 8 1 15 -5 15 -6 0 -9 7
-5 15 3 8 1 15 -5 15 -6 0 -8 4 -4 9 3 5 1 12 -5 16 -6 4 -8 11 -5 16 4 5 1 9
-5 9 -7 0 -10 7 -6 15 3 8 1 15 -5 15 -6 0 -8 4 -4 9 3 5 1 12 -5 16 -6 4 -8
11 -5 16 4 5 1 9 -5 9 -7 0 -10 7 -6 15 3 8 1 15 -5 15 -6 0 -7 5 -4 10 3 6 1
10 -5 10 -7 0 -10 7 -6 15 3 8 1 15 -5 15 -6 0 -7 5 -4 10 3 6 1 10 -5 10 -7
0 -10 7 -6 15 3 8 1 15 -5 15 -6 0 -7 5 -4 10 3 6 1 10 -5 10 -7 0 -10 7 -6
15 3 8 1 15 -5 15 -6 0 -7 5 -4 10 3 6 1 10 -5 10 -7 0 -10 7 -6 15 3 8 1 15
-5 15 -6 0 -7 5 -4 10 3 6 1 10 -5 10 -7 0 -10 7 -6 15 3 8 1 15 -5 15 -6 0
-7 5 -4 10 3 6 1 10 -5 10 -6 0 -8 5 -5 10 3 6 1 10 -5 10 -7 0 -10 7 -6 15 3
8 1 15 -5 15 -6 0 -7 5 -4 10 3 6 1 10 -5 10 -6 0 -8 5 -5 10 3 6 1 10 -5 10
-7 0 -10 7 -6 15 3 8 1 15 -5 15 -6 0 -7 5 -4 10 3 6 1 10 -5 10 -6 0 -8 5 -5
10 3 6 1 10 -5 10 -7 0 -10 7 -6 15 3 8 1 15 -5 15 -6 0 -7 5 -4 10 3 6 1 10
-5 10 -6 0 -8 5 -5 10 3 6 1 10 -5 10 -6 0 -8 5 -5 10 3 6 1 10 -5 10 -7 0
-10 7 -6 15 3 8 1 15 -5 15 -6 0 -7 5 -4 10 3 6 1 10 -5 10 -6 0 -8 5 -5 10 3
6 1 10 -5 10 -6 0 -8 5 -5 10 3 6 1 10 -6 10 -7 0 -10 3 -6 6 3 4 -1 13 -9 21
-8 9 -13 22 -10 30 4 9 2 11 -6 7 -8 -5 -9 -2 -5 9 3 10 2 17 -4 17 -6 0 -7 5
-4 10 3 6 1 10 -5 10 -6 0 -8 5 -5 10 3 6 1 10 -5 10 -6 0 -8 5 -5 10 3 6 1
10 -5 10 -6 0 -8 5 -5 10 3 6 1 10 -5 10 -6 0 -8 5 -5 10 3 6 1 10 -5 10 -6 0
-8 5 -5 10 3 6 1 10 -5 10 -6 0 -8 5 -5 10 3 6 1 10 -5 10 -6 0 -8 5 -5 10 3
6 1 10 -5 10 -6 0 -8 5 -5 10 3 6 1 10 -5 10 -6 0 -8 5 -5 10 3 6 1 10 -5 10
-6 0 -8 5 -5 10 3 6 1 10 -5 10 -6 0 -8 4 -5 10 3 6 1 10 -5 10 -6 0 -8 5 -5
10 3 6 1 10 -5 10 -6 0 -8 5 -5 10 3 6 1 10 -5 10 -6 0 -8 4 -5 10 3 5 1 10
-5 10 -6 0 -8 5 -5 10 3 6 1 10 -5 10 -6 0 -8 5 -5 10 3 6 1 10 -5 10 -6 0 -8
5 -5 10 3 6 1 10 -5 10 -6 0 -8 5 -5 10 3 6 1 10 -5 10 -6 0 -8 5 -5 10 3 6 1
10 -5 10 -6 0 -8 5 -5 10 3 6 1 10 -6 10 -7 0 -10 3 -6 6 3 3 -3 14 -14 25
-11 11 -17 24 -14 29 4 6 1 10 -5 10 -6 0 -8 5 -5 10 3 6 1 10 -5 10 -6 0 -8
5 -5 10 3 6 1 10 -5 10 -6 0 -8 5 -5 10 3 6 1 10 -5 10 -6 0 -9 4 -6 9 3 5 -1
12 -10 15 -8 3 -12 10 -9 16 3 5 1 10 -5 10 -6 0 -8 5 -5 10 3 6 1 10 -5 10
-6 0 -8 5 -5 10 3 6 1 10 -5 10 -6 0 -9 4 -6 9 3 5 -1 12 -10 15 -8 3 -12 10
-9 16 3 5 1 10 -5 10 -6 0 -8 5 -5 10 3 6 1 10 -5 10 -6 0 -9 4 -6 9 3 5 -1
12 -10 15 -8 3 -12 10 -9 16 3 5 1 10 -5 10 -6 0 -8 5 -5 10 3 6 1 10 -5 10
-6 0 -9 4 -6 9 3 5 -1 12 -10 15 -8 3 -12 10 -9 16 3 5 1 10 -6 10 -7 0 -9 3
-6 7 4 3 -1 12 -11 20 -11 10 -12 12 -2 8 8 -4 6 1 -4 9 -11 9 -16 16 -11 16
5 0 0 7 -11 16 -10 8 -12 13 -4 9 8 -4 6 1 -4 9 -11 9 -16 16 -11 16 5 0 0 7
-11 16 -10 8 -12 13 -4 9 8 -4 6 1 -4 9 -11 9 -16 16 -10 16 5 0 1 5 -9 11 -9
6 -15 14 -12 20 4 5 1 9 -5 9 -6 0 -9 4 -6 9 3 5 -1 12 -10 15 -9 4 -14 9 -11
13 4 3 -1 12 -11 20 -11 10 -12 12 -2 8 8 -4 6 1 -4 9 -11 9 -16 16 -11 16 5
0 0 7 -11 15 -10 8 -15 15 -10 15 6 0 1 7 -10 15 -10 8 -15 15 -10 15 6 0 1 7
-10 16 -10 8 -12 13 -4 9 10 -4 9 -2 -2 8 -10 8 -15 17 -11 20 3 4 -2 9 -11
13 -9 3 -14 10 -11 14 3 4 -2 11 -11 14 -8 3 -13 10 -10 15 3 5 -1 12 -10 15
-8 3 -13 10 -10 15 3 5 -1 12 -10 15 -8 3 -13 10 -10 15 3 5 -1 12 -10 15 -8
3 -13 10 -10 15 3 5 -1 12 -10 15 -8 3 -13 10 -10 15 3 5 -1 12 -10 15 -9 4
-14 9 -11 12 3 4 -4 15 -16 26 -12 11 -15 17 -7 13 8 -4 4 3 -10 15 -14 12
-18 19 -10 15 8 -4 4 3 -10 14 -14 11 -20 21 -15 21 6 0 3 5 -5 10 -8 5 -15
14 -15 19 0 6 -9 17 -20 26 -11 9 -13 14 -5 10 8 -4 4 3 -10 14 -14 11 -21 21
-16 21 4 0 -2 9 -15 21 -13 11 -17 18 -9 14 8 -4 6 1 -5 10 -11 9 -20 20 -20
25 0 5 -9 16 -20 24 -11 9 -16 16 -11 16 4 0 -2 9 -15 21 -13 11 -17 17 -9 14
8 -4 2 5 -15 20 -16 14 -23 23 -15 20 8 -4 2 5 -15 20 -16 14 -23 23 -15 20 8
-4 2 5 -15 20 -16 14 -23 24 -15 20 8 -4 4 3 -10 15 -14 12 -25 26 -25 30 0 4
-11 18 -25 30 -14 12 -18 18 -10 14 8 -3 -1 8 -20 25 -19 18 -28 29 -20 26 8
-4 4 2 -10 14 -14 11 -25 24 -25 29 0 5 -13 21 -30 37 -16 15 -21 22 -10 15
11 -7 2 4 -20 24 -22 21 -33 34 -25 31 8 -4 -3 10 -25 30 -22 21 -31 32 -20
25 11 -7 0 7 -25 30 -25 23 -36 37 -25 30 11 -7 -2 9 -30 35 -27 26 -41 42
-30 35 11 -7 -2 9 -30 35 -27 26 -41 42 -30 35 11 -7 -5 12 -36 41 -30 30 -48
50 -39 44 9 -5 -4 9 -29 33 -25 24 -45 47 -44 52 1 5 -29 36 -67 70 -39 34
-68 65 -65 69 6 11 -60 73 -69 64 -4 -5 -6 -3 -4 2 3 12 -293 310 -305 307 -5
-1 -6 1 -3 6 6 10 -58 75 -66 67 -3 -3 -33 26 -67 64 -35 39 -66 69 -71 68 -5
-1 -28 19 -52 44 -24 25 -38 38 -33 29 6 -9 -14 9 -44 39 -29 31 -48 47 -41
36 7 -11 -9 3 -35 30 -26 28 -42 41 -35 30 7 -11 -9 3 -35 30 -26 28 -42 41
-35 30 7 -11 -7 0 -30 25 -23 25 -37 36 -30 25 7 -11 -4 -2 -25 20 -20 22 -34
33 -30 25 3 -8 -10 3 -31 25 -20 22 -31 31 -24 20 7 -11 -2 -4 -20 15 -18 19
-29 28 -26 20 4 -8 -7 1 -25 20 -17 19 -28 28 -25 20 4 -8 -7 1 -25 20 -17 19
-28 28 -25 20 4 -8 -5 -1 -19 15 -15 17 -24 23 -20 15 4 -8 -8 1 -25 20 -17
19 -29 28 -25 20 3 -8 -6 -1 -20 15 -15 17 -24 23 -20 15 3 -8 -6 -1 -20 15
-15 17 -24 23 -20 15 3 -8 -6 -1 -20 15 -15 17 -24 23 -20 15 3 -8 -3 -4 -14
9 -12 13 -21 19 -21 15 0 -5 -7 0 -16 11 -8 11 -19 20 -24 20 -5 0 -16 9 -25
20 -9 11 -14 13 -10 5 4 -8 -1 -6 -10 5 -9 11 -20 20 -25 20 -5 0 -16 9 -25
20 -9 11 -14 13 -10 5 4 -8 -1 -6 -10 5 -9 11 -20 20 -26 20 -5 0 -14 7 -19
15 -5 8 -10 11 -10 5 0 -5 -10 1 -21 15 -11 14 -18 18 -14 10 4 -8 -3 -4 -15
10 -12 14 -19 18 -15 10 4 -8 -2 -5 -13 7 -11 12 -22 19 -26 16 -3 -3 -8 2
-12 11 -3 9 -10 13 -15 10 -5 -3 -12 2 -15 10 -3 9 -10 13 -15 10 -5 -3 -12 2
-15 10 -3 9 -10 13 -15 10 -5 -3 -12 2 -15 10 -3 9 -10 13 -15 10 -5 -3 -12 2
-15 10 -3 9 -10 14 -14 11 -5 -3 -13 3 -19 12 -6 10 -11 14 -11 9 0 -6 -7 -1
-16 10 -8 10 -13 12 -9 4 4 -8 -3 -4 -15 10 -12 14 -19 18 -15 10 4 -8 -1 -6
-9 4 -9 11 -16 16 -16 10 0 -5 -7 0 -15 10 -8 11 -15 16 -15 10 0 -5 -7 0 -15
10 -8 11 -15 16 -15 11 0 -5 -7 0 -16 11 -8 10 -13 12 -9 4 4 -10 2 -9 -8 2
-8 10 -17 15 -20 11 -4 -3 -9 2 -13 11 -3 9 -10 13 -15 10 -5 -3 -9 0 -9 6 0
6 -4 9 -9 5 -6 -3 -14 3 -20 12 -6 10 -11 14 -11 9 0 -6 -7 -1 -16 10 -8 10
-13 12 -9 4 4 -8 -1 -6 -9 4 -9 11 -16 16 -16 11 0 -5 -7 0 -16 11 -8 10 -13
12 -9 4 4 -8 -1 -6 -9 4 -9 11 -16 16 -16 11 0 -5 -7 0 -16 11 -8 10 -13 12
-9 4 4 -10 2 -9 -8 2 -8 10 -17 15 -20 11 -4 -3 -7 -1 -7 6 0 7 -5 9 -10 6 -6
-3 -13 1 -16 9 -3 9 -10 13 -15 10 -5 -3 -9 0 -9 6 0 6 -4 8 -10 5 -5 -3 -10
-1 -10 5 0 6 -5 8 -10 5 -6 -3 -13 1 -16 9 -3 9 -10 13 -15 10 -5 -3 -9 0 -9
6 0 6 -4 8 -10 5 -5 -3 -10 -1 -10 5 0 6 -4 9 -10 5 -5 -3 -18 3 -29 14 -11
11 -22 17 -25 13 -3 -3 -6 0 -6 7 0 7 -4 9 -10 6 -5 -3 -10 -1 -10 5 0 6 -4 9
-10 5 -5 -3 -18 3 -29 14 -11 11 -22 17 -25 13 -3 -3 -6 0 -6 7 0 7 -4 9 -10
6 -5 -3 -10 -1 -10 5 0 6 -4 8 -10 5 -5 -3 -10 -1 -10 5 0 6 -4 9 -10 5 -5 -3
-18 3 -29 14 -11 11 -22 17 -25 13 -3 -3 -6 0 -6 7 0 7 -4 9 -10 6 -5 -3 -10
-1 -10 5 0 6 -4 8 -10 5 -5 -3 -10 -1 -10 5 0 6 -4 8 -10 5 -5 -3 -10 -1 -10
5 0 6 -4 8 -10 5 -5 -3 -10 -1 -10 5 0 6 -4 8 -10 5 -5 -3 -10 -1 -10 5 0 6
-4 8 -10 5 -5 -3 -10 -1 -10 5 0 6 -4 8 -10 5 -5 -3 -10 -1 -10 5 0 6 -4 8
-10 5 -5 -3 -10 -1 -10 5 0 6 -4 8 -10 5 -5 -3 -10 -1 -10 5 0 6 -4 8 -10 5
-5 -3 -10 -1 -10 5 0 6 -4 8 -10 5 -5 -3 -10 -1 -10 5 0 6 -4 8 -10 5 -5 -3
-10 -1 -10 5 0 6 -4 8 -10 5 -5 -3 -10 -1 -10 5 0 6 -4 8 -10 5 -5 -3 -10 -1
-10 5 0 6 -4 8 -10 5 -5 -3 -10 -1 -10 5 0 6 -4 8 -10 5 -5 -3 -10 -1 -10 5 0
6 -4 8 -10 5 -5 -3 -10 -1 -10 5 0 6 -4 8 -10 5 -5 -3 -10 -1 -10 5 0 6 -4 8
-10 5 -5 -3 -10 -1 -10 5 0 6 -4 8 -10 5 -5 -3 -10 -1 -10 5 0 6 -4 8 -10 5
-5 -3 -10 -2 -10 4 0 6 -7 7 -17 4 -11 -4 -14 -3 -9 5 4 8 2 10 -7 6 -8 -3
-21 2 -30 10 -8 8 -17 12 -21 9 -3 -4 -6 -1 -6 6 0 7 -4 9 -10 6 -5 -3 -10 -1
-10 5 0 6 -4 8 -10 5 -5 -3 -10 -1 -10 5 0 6 -4 8 -10 5 -5 -3 -10 -2 -10 4 0
6 -7 8 -15 5 -8 -4 -15 -1 -15 6 0 6 -4 8 -10 5 -5 -3 -10 -1 -10 5 0 6 -4 8
-10 5 -5 -3 -10 -1 -10 5 0 6 -4 8 -10 5 -5 -3 -10 -2 -10 4 0 6 -7 8 -15 5
-8 -4 -15 -1 -15 6 0 6 -4 8 -10 5 -5 -3 -10 -1 -10 5 0 6 -4 8 -10 5 -5 -3
-10 -2 -10 4 0 6 -7 8 -15 5 -8 -4 -15 -1 -15 6 0 6 -4 8 -10 5 -5 -3 -10 -1
-10 5 0 6 -4 8 -10 5 -5 -3 -10 -2 -10 4 0 6 -7 8 -15 5 -8 -4 -15 -1 -15 6 0
6 -4 8 -10 5 -5 -3 -10 -1 -10 5 0 6 -4 8 -10 5 -5 -3 -10 -2 -10 4 0 6 -7 8
-15 5 -8 -4 -15 -1 -15 6 0 6 -4 8 -10 5 -5 -3 -10 -2 -10 4 0 6 -7 8 -15 5
-8 -4 -15 -1 -15 6 0 6 -4 8 -10 5 -5 -3 -10 -2 -10 4 0 6 -7 8 -15 5 -8 -4
-15 -1 -15 6 0 6 -4 8 -10 5 -5 -3 -10 -2 -10 4 0 6 -7 8 -15 5 -8 -4 -15 -1
-15 6 0 6 -4 8 -10 5 -5 -3 -10 -2 -10 4 0 6 -7 8 -15 5 -8 -4 -15 -1 -15 6 0
6 -4 8 -10 5 -5 -3 -10 -2 -10 4 0 6 -7 8 -15 5 -8 -4 -15 -1 -15 6 0 6 -4 9
-9 5 -5 -3 -12 -1 -16 5 -4 6 -11 8 -16 5 -5 -4 -9 -2 -9 4 0 6 -7 8 -15 5 -8
-4 -15 -1 -15 6 0 6 -4 9 -9 5 -5 -3 -12 -1 -16 5 -4 6 -11 8 -16 5 -5 -4 -9
-2 -9 4 0 6 -7 8 -15 5 -8 -4 -15 -1 -15 5 0 6 -7 8 -15 5 -8 -4 -15 -1 -15 6
0 6 -4 9 -9 5 -5 -3 -12 -1 -16 5 -4 6 -11 8 -16 5 -5 -4 -9 -2 -9 4 0 6 -7 8
-15 5 -8 -4 -15 -1 -15 5 0 6 -7 8 -15 5 -8 -4 -15 -1 -15 5 0 6 -7 8 -15 5
-8 -4 -15 -1 -15 5 0 6 -7 8 -15 5 -8 -4 -15 -1 -15 5 0 6 -7 8 -15 5 -8 -4
-15 -1 -15 6 0 6 -4 9 -9 5 -5 -3 -12 -1 -16 5 -4 6 -10 8 -15 5 -5 -3 -11 -1
-15 5 -4 6 -10 8 -15 5 -5 -3 -11 -1 -15 4 -3 6 -12 8 -20 4 -8 -3 -15 0 -15
6 0 6 -7 8 -15 5 -8 -4 -15 -1 -15 5 0 6 -7 8 -15 5 -8 -4 -15 -1 -15 5 0 6
-7 8 -15 5 -8 -4 -15 -1 -15 5 0 6 -7 8 -15 5 -8 -4 -15 -1 -15 5 0 6 -6 8
-14 5 -8 -3 -17 -1 -20 5 -4 6 -13 8 -21 4 -8 -3 -15 0 -15 6 0 6 -7 8 -15 5
-8 -4 -15 -1 -15 5 0 6 -7 8 -15 5 -8 -4 -15 -1 -15 6 0 7 -8 9 -20 5 -11 -4
-20 -2 -20 4 0 6 -7 8 -15 5 -8 -4 -15 -1 -15 5 0 6 -6 8 -14 5 -8 -3 -17 -1
-20 5 -4 6 -13 8 -21 4 -8 -3 -15 -1 -15 5 0 6 -9 8 -20 5 -11 -3 -20 0 -20 6
0 5 -7 8 -15 5 -8 -4 -15 -1 -15 6 0 7 -8 9 -20 5 -11 -4 -20 -2 -20 4 0 6 -6
8 -14 5 -8 -3 -17 -1 -20 5 -4 6 -13 8 -20 5 -8 -3 -17 -1 -20 5 -4 6 -13 8
-21 4 -8 -3 -15 0 -15 7 0 7 -8 9 -20 5 -12 -4 -20 -2 -20 5 0 7 -8 9 -20 5
-12 -4 -20 -2 -20 5 0 7 -8 9 -20 5 -12 -4 -20 -2 -20 5 0 7 -8 9 -20 5 -12
-4 -20 -2 -20 5 0 7 -8 9 -20 5 -12 -4 -20 -2 -20 5 0 7 -8 9 -19 5 -11 -3
-22 -1 -25 4 -4 6 -13 8 -20 5 -8 -3 -17 -1 -20 4 -3 6 -15 8 -26 5 -12 -3
-20 0 -20 7 0 7 -8 9 -19 5 -11 -3 -22 -2 -25 4 -3 5 -15 7 -26 4 -11 -3 -20
0 -20 6 0 7 -9 9 -25 5 -16 -4 -25 -2 -25 6 0 7 -8 9 -19 5 -11 -3 -22 -2 -25
4 -3 5 -15 7 -25 4 -10 -3 -22 0 -25 5 -3 6 -15 8 -25 5 -10 -3 -22 0 -25 5
-3 6 -15 8 -25 5 -10 -3 -22 0 -25 6 -4 6 -18 8 -32 5 -15 -4 -24 -2 -24 5 0
7 -9 9 -24 5 -13 -3 -26 -1 -30 4 -3 5 -17 7 -31 4 -15 -2 -25 0 -25 7 0 7 -9
9 -24 5 -13 -3 -27 -1 -31 5 -3 6 -17 8 -30 5 -12 -3 -26 -1 -29 5 -4 6 -20 8
-36 4 -19 -3 -30 -1 -30 6 0 6 -11 8 -29 5 -16 -3 -32 -1 -35 5 -4 6 -20 8
-36 4 -20 -3 -30 -1 -30 6 0 8 -11 10 -34 6 -20 -4 -36 -2 -40 4 -4 6 -20 8
-35 5 -16 -3 -32 -1 -35 5 -4 6 -20 8 -36 4 -17 -3 -36 0 -44 6 -7 6 -26 8
-43 5 -18 -4 -33 -1 -37 5 -5 7 -22 9 -45 5 -23 -4 -41 -2 -45 5 -4 6 -24 8
-50 5 -28 -4 -46 -2 -50 5 -5 8 -24 9 -55 5 -32 -4 -51 -2 -56 5 -4 8 -22 10
-51 5 -24 -3 -52 -3 -61 2 -10 4 -47 9 -83 11 -36 1 -110 4 -165 7 -182 9
-1025 12 -1047 3z m1157 -416 c777 -58 1473 -181 2180 -387 1868 -544 3563
-1632 4851 -3114 1385 -1593 2243 -3573 2453 -5660 39 -381 46 -547 46 -1035
0 -488 -7 -654 -46 -1035 -286 -2838 -1758 -5431 -4064 -7155 -1478 -1106
-3234 -1790 -5065 -1974 -381 -39 -547 -46 -1035 -46 -488 0 -654 7 -1035 46
-3452 347 -6509 2451 -8085 5564 -624 1232 -974 2512 -1077 3940 -17 240 -17
1080 0 1320 100 1387 431 2626 1022 3830 1102 2244 2989 4011 5302 4964 1014
417 2138 677 3213 741 99 6 205 12 235 14 115 7 962 -3 1105 -13z m-7825
-2344 c0 -2 -10 -12 -22 -23 l-23 -19 19 23 c18 21 26 27 26 19z m14315 -17
c10 -11 16 -20 13 -20 -3 0 -13 9 -23 20 -10 11 -16 20 -13 20 3 0 13 -9 23
-20z m145 -135 c13 -14 21 -25 18 -25 -2 0 -15 11 -28 25 -13 14 -21 25 -18
25 2 0 15 -11 28 -25z m-14610 12 c0 -2 -15 -16 -32 -33 l-33 -29 29 33 c28
30 36 37 36 29z m-360 -360 c0 -2 -17 -19 -37 -38 l-38 -34 34 38 c33 34 41
42 41 34z m15360 -42 c13 -14 21 -25 18 -25 -2 0 -15 11 -28 25 -13 14 -21 25
-18 25 2 0 15 -11 28 -25z m-15520 -128 c0 -2 -10 -12 -22 -23 l-23 -19 19 23
c18 21 26 27 26 19z m15655 -17 c10 -11 16 -20 13 -20 -3 0 -13 9 -23 20 -10
11 -16 20 -13 20 3 0 13 -9 23 -20z m15 -14313 c0 -2 -10 -12 -22 -23 l-23
-19 19 23 c18 21 26 27 26 19z m-15540 -172 c19 -19 32 -35 29 -35 -3 0 -20
16 -39 35 -19 19 -32 35 -29 35 3 0 20 -16 39 -35z m15410 32 c0 -2 -15 -16
-32 -33 l-33 -29 29 33 c28 30 36 37 36 29z m-15044 -399 l29 -33 -32 29 c-31
28 -38 36 -30 36 2 0 16 -15 33 -32z m14654 9 c0 -2 -12 -14 -27 -28 l-28 -24
24 28 c23 25 31 32 31 24z m-150 -140 c0 -2 -10 -12 -22 -23 l-23 -19 19 23
c18 21 26 27 26 19z"/>
<path d="M10328 19835 c-2 -1 -59 -5 -128 -9 -143 -7 -251 -14 -328 -22 l-54
-6 6 -91 c4 -51 9 -112 11 -137 2 -25 7 -94 11 -155 3 -60 8 -117 9 -125 2 -9
6 -81 10 -160 4 -80 8 -156 10 -170 2 -14 7 -92 11 -175 4 -82 9 -153 10 -157
1 -5 2 -31 3 -58 l1 -51 43 5 c23 3 116 10 207 16 197 12 304 21 308 25 2 2
-1 63 -6 137 -6 73 -6 137 -2 142 5 5 34 -8 67 -30 32 -22 66 -43 75 -49 103
-61 148 -84 243 -125 60 -26 127 -50 148 -54 34 -6 37 -5 37 17 0 20 -10 27
-82 51 -109 37 -270 114 -266 128 2 6 36 19 76 29 139 35 233 103 287 208 11
21 37 68 57 103 71 121 86 268 43 405 -26 84 -25 83 -130 159 -114 83 -209
125 -320 143 -53 8 -349 13 -357 6z m426 -59 c77 -21 156 -70 232 -144 74 -71
108 -128 123 -202 12 -64 8 -107 -20 -207 -34 -122 -65 -181 -130 -244 -88
-87 -190 -133 -322 -145 -60 -5 -75 -4 -86 10 -7 9 -19 16 -26 16 -6 0 -30 17
-52 38 l-40 37 -7 130 c-8 145 -14 260 -21 350 -2 33 -7 134 -11 224 l-7 163
154 -5 c98 -3 176 -11 213 -21z"/>
<path d="M11788 19815 c-210 -53 -372 -189 -458 -385 -45 -102 -60 -177 -56
-290 8 -224 118 -409 321 -542 201 -132 460 -139 690 -20 73 38 216 169 248
227 70 129 97 224 97 347 0 144 -35 265 -108 377 -35 53 -147 171 -162 171 -5
0 -15 6 -22 14 -26 25 -158 85 -230 103 -53 13 -264 12 -320 -2z m297 -39
c283 -62 483 -290 502 -572 8 -111 -11 -200 -63 -311 -105 -222 -316 -353
-569 -355 -95 -1 -130 5 -137 25 -3 7 -1 53 3 102 10 107 16 191 24 300 4 44
8 100 10 125 2 25 7 74 10 110 3 36 10 110 16 165 5 55 12 120 14 145 18 191
27 264 32 273 7 11 92 8 158 -7z"/>
<path d="M12640 19733 c0 -4 32 -48 71 -98 194 -250 209 -277 415 -780 65
-159 72 -181 59 -195 -8 -9 -78 -70 -155 -136 -77 -65 -140 -124 -140 -130 0
-7 7 -14 15 -18 13 -5 45 17 100 67 11 11 46 38 79 60 32 23 87 62 121 87 35
25 114 81 176 125 62 44 149 106 193 138 45 31 113 80 151 107 39 28 100 71
137 97 197 141 257 183 298 206 54 30 71 53 50 67 -8 5 -20 10 -26 10 -6 0
-134 -74 -285 -164 -151 -91 -277 -162 -281 -158 -5 5 -155 367 -235 569 -2 6
-23 15 -46 18 -23 4 -51 9 -62 11 -11 3 -36 7 -55 10 -19 3 -118 23 -220 44
-102 22 -216 44 -255 50 -38 6 -78 13 -87 16 -10 3 -18 2 -18 -3z"/>
<path d="M8568 19644 c-2 -1 -30 -4 -63 -5 -203 -9 -377 -99 -500 -259 -67
-89 -92 -139 -119 -243 -89 -342 95 -683 430 -796 169 -56 354 -47 499 26 118
60 238 161 292 247 75 118 122 294 110 416 -33 335 -279 582 -609 614 -21 2
-39 2 -40 0z m146 -58 c16 -4 68 -25 115 -48 157 -74 281 -228 326 -403 31
-122 17 -289 -35 -410 -69 -162 -268 -327 -438 -364 -39 -8 -44 -7 -52 12 -26
61 -340 1142 -340 1170 0 11 46 28 115 43 60 13 251 13 309 0z"/>
<path d="M7500 19355 c-9 -11 -8 -27 8 -77 36 -111 152 -514 152 -528 0 -12
-96 -10 -240 5 -19 2 -71 6 -115 10 -44 3 -100 7 -125 10 -25 2 -85 7 -135 10
-49 3 -110 8 -135 10 -25 2 -83 6 -130 10 -112 7 -215 15 -270 20 -25 2 -82 7
-128 10 l-83 7 199 -399 c110 -219 226 -454 258 -522 115 -244 127 -266 152
-269 17 -3 22 2 22 19 0 12 -61 140 -135 284 -74 145 -135 268 -135 275 0 11
177 9 375 -5 28 -2 109 -7 180 -10 207 -10 365 -30 450 -56 54 -16 200 -66
218 -74 24 -10 22 1 -17 129 -96 314 -175 588 -242 846 -34 129 -77 276 -86
293 -11 21 -22 22 -38 2z"/>
<path d="M14204 18785 c-446 -297 -532 -359 -615 -438 -89 -86 -127 -132 -116
-143 7 -7 37 7 37 17 0 5 27 36 60 70 l60 62 97 -45 c54 -26 181 -88 283 -140
l185 -94 3 -101 3 -100 57 -26 c50 -23 212 -107 380 -197 l52 -28 1 81 c0 45
2 116 4 157 3 82 11 416 21 885 3 165 7 319 9 343 1 23 1 42 0 42 -1 0 -235
-155 -521 -345z m-14 -162 c1 -54 3 -185 7 -290 3 -127 2 -193 -5 -193 -28 0
-466 213 -496 241 -14 13 41 54 304 229 91 60 171 110 178 110 9 0 12 -26 12
-97z"/>
<path d="M5875 18558 c-110 -66 -217 -131 -237 -142 -21 -12 -38 -25 -38 -30
0 -4 30 -56 67 -115 155 -247 340 -554 537 -888 27 -46 53 -83 59 -83 5 0 71
38 146 84 75 45 177 107 228 137 51 30 92 58 93 63 0 4 -26 52 -58 105 -274
450 -378 625 -503 843 -46 81 -86 148 -89 148 -3 0 -95 -55 -205 -122z"/>
<path d="M15425 18451 c-55 -76 -107 -149 -115 -161 -15 -22 -147 -205 -163
-225 -4 -5 -19 -23 -32 -40 -14 -16 -25 -33 -25 -37 0 -4 -6 -13 -13 -20 -13
-13 -276 -371 -290 -395 -5 -8 20 -32 70 -70 43 -31 80 -60 83 -63 3 -4 48
-37 100 -75 52 -38 97 -72 100 -76 3 -3 41 -32 85 -64 44 -32 82 -61 85 -65 3
-3 48 -37 100 -75 52 -38 100 -74 106 -80 7 -5 24 -19 39 -30 16 -11 42 -30
59 -43 27 -20 32 -20 45 -7 13 13 12 18 -12 43 -15 15 -66 55 -113 88 -47 32
-91 64 -97 69 -7 6 -39 28 -72 50 -33 22 -67 46 -75 52 -8 7 -23 19 -33 26
-17 12 -16 17 29 77 26 36 50 67 53 70 4 3 38 48 76 100 38 52 74 100 79 107
17 20 28 34 86 113 57 78 68 92 85 113 6 7 24 30 40 52 17 22 32 42 35 45 3 3
37 45 75 95 80 103 80 103 134 170 23 27 41 52 41 55 0 3 -46 39 -101 80 -56
41 -111 83 -123 92 -33 28 -36 30 -133 101 -51 37 -96 67 -100 67 -5 0 -53
-62 -108 -139z"/>
<path d="M5175 18142 c-125 -37 -255 -121 -362 -235 -119 -128 -148 -187 -148
-307 0 -98 19 -148 82 -216 80 -86 126 -103 453 -164 63 -11 142 -31 175 -44
222 -86 250 -99 272 -124 25 -29 28 -48 14 -86 -12 -31 -96 -82 -114 -69 -14
11 -14 11 -92 -6 -33 -8 -89 -15 -125 -16 -36 -2 -68 -3 -72 -4 -5 -1 -8 -10
-8 -21 0 -30 58 -35 194 -16 165 22 237 57 349 170 95 96 98 99 128 157 49 96
58 209 21 291 -59 135 -183 202 -567 309 -229 64 -308 93 -352 132 -35 31 -42
62 -21 100 44 84 219 135 398 115 34 -4 40 29 8 41 -41 15 -170 11 -233 -7z"/>
<path d="M10210 17914 c-102 -4 -363 -29 -515 -50 -60 -8 -144 -19 -185 -25
-85 -11 -244 -40 -440 -81 -75 -15 -399 -96 -430 -107 -14 -5 -54 -16 -90 -26
-36 -9 -81 -23 -100 -30 -19 -8 -78 -27 -130 -44 -127 -40 -344 -119 -407
-147 -17 -8 -34 -14 -37 -14 -3 0 -29 -11 -58 -24 -29 -13 -71 -31 -93 -40
-91 -38 -151 -66 -375 -178 -129 -65 -266 -136 -305 -158 -38 -22 -79 -45 -90
-50 -21 -10 -25 -13 -118 -72 -32 -21 -60 -38 -63 -38 -4 0 -211 -132 -256
-163 -121 -85 -407 -295 -418 -308 -3 -3 -30 -25 -61 -50 -244 -193 -558 -487
-781 -731 -171 -187 -205 -227 -305 -353 -26 -33 -52 -65 -58 -71 -17 -19
-121 -155 -175 -229 -28 -38 -58 -81 -68 -94 -20 -27 -29 -41 -96 -142 -45
-68 -105 -160 -162 -249 -64 -101 -190 -330 -288 -525 -96 -190 -125 -251
-176 -370 -5 -11 -22 -50 -39 -88 -17 -37 -31 -73 -31 -80 0 -7 -4 -17 -8 -22
-5 -6 -17 -32 -26 -60 -10 -27 -24 -63 -31 -80 -12 -27 -52 -141 -104 -295
-10 -30 -31 -95 -46 -145 -15 -49 -31 -101 -36 -115 -10 -28 -59 -211 -66
-250 -3 -14 -11 -45 -18 -70 -7 -25 -17 -67 -23 -95 -6 -27 -17 -81 -26 -120
-33 -156 -70 -368 -85 -490 -51 -405 -63 -562 -68 -915 -6 -333 7 -604 43
-895 8 -66 19 -158 25 -205 17 -141 50 -322 111 -605 10 -47 57 -233 80 -320
56 -208 179 -579 239 -720 5 -11 18 -45 29 -75 11 -30 25 -64 29 -75 24 -54
53 -120 72 -163 23 -52 263 -538 278 -562 6 -8 35 -60 67 -115 182 -321 436
-690 660 -960 18 -22 50 -61 71 -87 238 -290 610 -663 901 -901 26 -21 65 -53
87 -71 270 -224 639 -478 960 -660 55 -32 107 -61 115 -67 24 -15 510 -255
562 -278 43 -19 109 -48 163 -72 11 -4 45 -18 75 -29 30 -11 64 -24 75 -29
141 -60 512 -183 720 -239 87 -23 273 -70 320 -80 283 -61 464 -94 605 -111
47 -6 139 -17 205 -25 291 -36 562 -49 895 -43 353 5 510 17 915 68 131 16
322 50 515 91 52 11 114 24 138 29 24 5 47 11 52 14 5 3 28 9 52 14 57 12 237
59 268 70 14 5 66 21 115 36 50 15 115 36 145 46 154 52 268 92 295 104 17 7
53 21 80 31 28 9 54 21 59 26 6 4 16 8 23 8 7 0 43 14 80 31 38 17 77 34 88
39 119 51 180 80 370 176 195 98 424 224 525 288 89 57 181 117 249 162 101
67 115 76 142 96 13 10 56 40 94 68 74 54 210 158 229 175 6 6 38 32 71 58
126 100 166 134 353 305 244 223 538 537 731 781 25 31 47 58 50 61 13 11 223
297 308 418 31 45 163 252 163 256 0 3 17 31 37 63 60 93 63 97 73 118 5 11
28 52 50 90 22 39 93 176 158 305 112 224 140 284 178 375 9 22 27 64 40 93
13 29 24 55 24 58 0 3 6 20 14 37 28 63 107 281 147 407 17 52 35 105 40 118
5 13 6 28 3 34 -5 7 -2 8 5 3 9 -5 12 -1 10 11 -1 11 3 32 10 47 6 16 9 32 6
37 -3 5 -1 10 4 12 5 1 11 17 13 33 1 17 7 33 12 36 4 4 9 20 10 36 2 16 6 35
10 41 4 7 4 17 1 22 -3 6 -1 10 5 10 6 0 10 8 9 18 -1 9 1 25 6 34 4 10 8 29
9 43 0 14 5 25 10 25 4 0 6 9 3 20 -3 11 -1 23 5 26 5 3 7 12 4 20 -3 8 0 14
5 14 6 0 9 9 6 20 -3 11 -1 20 5 20 6 0 8 11 6 25 -3 14 -1 28 4 31 5 3 7 12
4 20 -3 8 -1 14 4 14 6 0 10 12 10 28 -1 32 4 60 14 84 4 9 5 21 2 27 -3 5 -2
11 3 13 5 1 11 26 14 53 2 28 7 58 12 68 4 9 4 24 1 33 -3 9 -2 12 5 9 6 -4
10 8 10 32 -1 49 4 86 12 99 3 6 6 28 7 50 0 21 3 55 6 74 3 19 6 50 7 68 0
17 4 32 9 32 5 0 8 19 8 43 -1 23 2 69 6 102 4 33 8 81 8 108 1 26 4 47 8 47
9 0 11 103 11 560 0 465 -2 562 -10 557 -5 -3 -8 18 -9 46 0 29 -4 77 -8 107
-4 30 -6 76 -6 103 1 26 -3 47 -9 47 -5 0 -7 9 -4 20 3 11 2 28 -3 37 -8 20
-13 59 -13 121 -1 23 -5 42 -11 42 -5 0 -7 7 -4 15 4 8 3 23 -1 33 -4 9 -7 32
-6 51 2 18 -1 31 -6 28 -5 -3 -7 7 -5 24 2 16 0 29 -6 29 -9 0 -11 11 -11 83
-1 15 -5 27 -11 27 -5 0 -7 7 -4 15 3 8 2 20 -2 27 -10 15 -15 44 -14 81 0 15
-4 27 -10 27 -5 0 -7 6 -4 14 3 8 1 17 -4 20 -5 3 -7 17 -4 31 2 14 0 25 -6
25 -6 0 -8 9 -5 20 3 11 0 20 -6 20 -5 0 -8 6 -5 14 3 8 1 17 -4 20 -5 3 -7
18 -4 32 4 21 2 25 -8 19 -10 -6 -12 -4 -7 8 4 10 1 30 -5 45 -6 15 -10 38 -9
51 2 13 -1 21 -7 17 -6 -4 -8 2 -5 14 3 11 1 20 -5 20 -5 0 -9 8 -9 18 0 45
-4 63 -12 58 -5 -3 -9 0 -8 7 1 39 -4 67 -12 63 -5 -4 -7 3 -4 14 3 12 0 20
-6 20 -7 0 -10 4 -6 9 3 5 1 12 -4 15 -5 3 -7 16 -3 28 4 16 2 19 -8 13 -8 -5
-11 -4 -7 3 8 11 -74 267 -142 445 -112 294 -312 726 -436 942 -29 50 -54 95
-56 101 -4 9 -187 307 -249 404 -14 21 -54 80 -90 131 -36 50 -78 111 -95 134
-93 132 -252 331 -429 536 -115 134 -501 520 -635 635 -205 177 -404 336 -536
429 -23 17 -84 59 -134 95 -51 36 -110 76 -131 90 -97 62 -395 245 -404 249
-6 2 -51 27 -101 56 -215 123 -648 324 -940 435 -155 59 -600 204 -655 214 -8
1 -35 8 -60 15 -89 25 -252 64 -335 81 -33 6 -89 18 -125 25 -175 36 -241 47
-490 80 -318 41 -406 47 -825 50 -231 1 -458 1 -505 -1z"/>
<path d="M16555 17674 c-33 -36 -73 -80 -88 -97 -123 -137 -316 -341 -605
-638 l-122 -127 72 -68 c39 -38 127 -123 195 -189 69 -66 128 -121 132 -123 4
-1 32 23 61 55 162 173 488 512 713 740 l119 120 -114 110 c-162 158 -289 278
-297 281 -3 1 -33 -27 -66 -64z"/>
<path d="M3877 17069 c7 -31 37 -139 67 -240 29 -101 73 -250 97 -332 43 -150
61 -190 35 -78 -8 35 -10 61 -5 61 11 0 150 -44 224 -70 28 -10 109 -37 180
-59 72 -23 135 -45 142 -49 20 -13 -336 -362 -369 -362 -4 0 -26 35 -48 78
-23 42 -38 68 -35 58 3 -10 13 -46 21 -80 23 -90 137 -341 154 -341 29 0 21
43 -24 135 l-46 93 43 41 c59 58 336 317 360 339 12 10 28 15 36 11 44 -18
155 -54 162 -52 9 4 214 195 358 334 l104 101 -74 23 c-41 12 -132 42 -204 65
-71 23 -177 57 -235 75 -231 73 -301 95 -440 140 -80 26 -192 62 -250 80 -58
18 -141 45 -186 59 l-80 27 13 -57z"/>
<path d="M17059 17036 c-108 -38 -184 -123 -218 -241 -22 -74 -31 -149 -37
-300 -6 -135 -9 -154 -31 -193 -13 -24 -33 -69 -43 -100 -62 -190 -116 -230
-198 -149 -22 22 -34 45 -37 70 -3 21 -14 72 -25 114 -11 42 -20 103 -20 136
0 55 -1 58 -22 55 -14 -2 -24 -12 -28 -28 -16 -68 47 -291 109 -389 31 -48
131 -148 187 -188 17 -11 64 -35 105 -53 66 -29 82 -31 149 -28 89 5 160 38
217 101 35 39 89 143 104 202 4 17 15 57 24 90 17 64 28 112 70 300 38 177 61
246 93 284 93 112 236 -70 235 -301 0 -64 3 -88 13 -92 23 -9 36 33 35 106 -1
97 -42 213 -111 313 -31 45 -177 195 -190 195 -5 0 -16 7 -25 16 -9 9 -50 34
-91 55 -69 36 -82 39 -152 39 -42 -1 -93 -7 -113 -14z"/>
<path d="M17870 16273 c1 -10 46 -79 100 -153 55 -74 100 -140 100 -147 0 -7
-26 -30 -57 -52 -32 -22 -98 -70 -148 -105 -91 -65 -426 -296 -671 -462 l-133
-90 40 -60 c22 -32 87 -130 144 -217 l104 -157 133 81 c410 251 481 294 777
466 79 46 150 82 156 79 7 -2 26 -28 42 -58 99 -178 138 -238 155 -238 11 0
18 7 18 18 0 15 -271 432 -687 1060 -35 52 -73 71 -73 35z"/>
<path d="M3339 16234 c-87 -16 -191 -58 -260 -105 -109 -73 -214 -211 -262
-344 -27 -74 -28 -81 -34 -190 -11 -224 79 -427 247 -556 18 -13 37 -29 45
-36 26 -24 202 -92 265 -101 285 -43 575 105 710 364 17 33 36 78 41 100 6 21
15 57 20 79 32 126 -12 396 -72 451 -34 31 -34 -10 2 -114 28 -83 33 -111 33
-197 1 -111 -4 -147 -28 -218 -26 -78 -62 -141 -108 -190 l-43 -46 -115 85
c-63 47 -124 93 -135 102 -11 9 -34 26 -50 36 -17 11 -35 24 -42 30 -21 19
-35 29 -133 100 -52 38 -97 72 -100 76 -3 3 -41 33 -85 65 -44 32 -82 61 -85
64 -3 3 -58 46 -122 95 -65 49 -118 92 -118 96 0 19 69 106 122 154 105 95
236 151 378 163 79 6 102 15 83 34 -17 17 -78 18 -154 3z"/>
<path d="M18675 15060 c-4 -6 -39 -33 -78 -60 -40 -27 -124 -87 -188 -132
l-117 -84 38 -64 c21 -36 42 -65 47 -65 6 0 431 212 441 220 1 1 -23 46 -55
99 -55 91 -74 109 -88 86z"/>
<path d="M1720 11628 c-85 -66 -234 -182 -330 -259 -96 -76 -278 -220 -405
-319 -126 -100 -230 -186 -230 -191 0 -5 41 -41 90 -79 151 -119 195 -153 265
-210 37 -30 123 -98 191 -150 67 -52 153 -120 190 -150 138 -113 361 -285 372
-288 7 -1 42 21 79 50 37 29 168 130 290 225 123 95 271 210 329 255 59 46
169 131 245 191 77 59 150 116 163 128 l24 20 -24 17 c-13 9 -40 30 -59 47
-19 17 -68 58 -109 90 -292 235 -419 337 -571 460 -95 77 -185 149 -199 159
-14 11 -51 41 -81 66 -30 26 -60 49 -65 53 -6 3 -80 -49 -165 -115z"/>
<path d="M19101 11600 c-130 -28 -251 -122 -291 -227 -37 -96 -27 -253 21
-345 19 -36 52 -75 159 -184 127 -130 138 -166 59 -206 -26 -14 -59 -18 -143
-18 -179 0 -258 20 -379 97 -22 13 -41 23 -43 21 -5 -6 -7 -89 -5 -266 l1
-152 58 39 c85 57 116 71 198 87 122 23 312 13 352 -19 6 -5 12 -29 12 -52 0
-40 -4 -47 -59 -97 -73 -65 -174 -185 -202 -239 -75 -148 -45 -361 64 -454
129 -110 325 -143 516 -85 191 58 283 160 298 330 9 90 -11 157 -94 328 -92
190 -96 209 -53 246 18 15 39 25 47 22 8 -4 20 -6 26 -6 21 0 75 -57 115 -122
34 -55 134 -143 196 -172 75 -36 147 -48 231 -40 91 9 144 33 211 96 71 67 99
115 125 214 33 126 16 303 -40 412 -74 146 -242 230 -402 202 -134 -23 -236
-95 -334 -236 -36 -51 -70 -96 -75 -99 -23 -14 -91 -7 -111 11 -32 29 -19 86
55 243 36 75 69 154 75 176 36 141 6 278 -80 363 -50 50 -83 69 -189 107 -83
30 -238 42 -319 25z"/>
<path d="M5888 4001 c-66 -21 -141 -67 -179 -108 -76 -81 -143 -216 -154 -308
-14 -121 -12 -165 11 -342 14 -104 34 -256 44 -339 11 -84 24 -180 29 -215 5
-35 13 -95 17 -134 3 -38 8 -73 10 -76 8 -13 34 -336 35 -430 1 -53 4 -101 8
-107 4 -7 74 22 201 86 107 54 220 108 250 122 86 38 331 142 612 260 366 153
454 208 540 337 66 98 100 199 102 298 1 71 -2 87 -31 145 -62 125 -146 183
-268 184 -85 0 -123 -16 -255 -105 -112 -77 -147 -93 -184 -83 -67 17 -70 99
-6 229 51 107 182 246 274 292 l58 29 -153 91 c-170 100 -213 123 -228 123 -6
0 -7 -15 -4 -35 7 -43 -12 -167 -38 -249 -19 -58 -69 -156 -93 -182 -6 -7 -22
-26 -35 -44 -41 -54 -106 -75 -142 -47 -29 22 -36 75 -26 187 17 190 -10 291
-97 368 -76 67 -194 88 -298 53z"/>
<path d="M14405 3997 c-2 -7 -9 -70 -15 -142 -6 -71 -13 -141 -15 -155 -2 -14
-11 -108 -20 -210 -9 -102 -25 -241 -36 -310 -30 -188 -38 -249 -44 -315 -3
-33 -10 -112 -15 -175 -22 -236 -11 -373 42 -533 59 -181 156 -311 283 -381
65 -37 80 -41 177 -55 132 -18 270 33 376 141 120 121 152 266 106 484 -24
117 -3 184 57 184 36 0 63 -16 159 -98 128 -109 210 -138 371 -130 76 3 106
10 158 33 110 50 185 126 239 244 47 101 30 267 -41 421 -40 87 -65 120 -167
221 -101 100 -152 136 -315 217 -102 51 -403 182 -418 182 -11 0 -315 129
-412 175 -55 26 -122 55 -148 66 -26 10 -109 48 -183 84 -88 42 -136 60 -139
52z"/>
</g>
</svg>
